<svg width="59" height="46" viewBox="0 0 59 46" fill="none" xmlns="http://www.w3.org/2000/svg">
<path d="M22.068 11.3401C21.9876 11.3434 21.9246 11.3577 21.8789 11.3829C21.8257 11.4115 21.8159 11.4511 21.8496 11.5016C22.0245 11.7643 22.2174 12.0111 22.4282 12.2419C22.4553 12.2716 22.4716 12.3007 22.4771 12.3293C22.4804 12.3452 22.4785 12.3618 22.4717 12.3765C22.4648 12.3911 22.4534 12.4032 22.4392 12.4106C22.4249 12.4181 22.4086 12.4207 22.3928 12.4179C22.377 12.4151 22.3625 12.4072 22.3516 12.3953L21.9343 11.9616C21.9099 11.9376 21.8775 11.9222 21.8428 11.9183C21.8082 11.9144 21.7735 11.9222 21.7449 11.9403C21.7163 11.9584 21.6956 11.9857 21.6864 12.0173C21.6772 12.049 21.6802 12.083 21.6947 12.1133C21.7078 12.1386 21.711 12.1831 21.7045 12.2469L13.8161 4.29003C13.7672 4.24057 13.7515 4.24991 13.7689 4.31806C13.9123 4.86214 14.1345 5.28697 14.4355 5.59254C16.2489 7.43584 18.0608 9.28078 19.871 11.1274C19.7949 11.1197 19.7569 11.1917 19.7569 11.3434L17.4213 9.09777C17.4028 9.07909 17.3855 9.07964 17.3692 9.09942C17.204 9.28738 17.2024 9.30167 17.3643 9.14229C17.3773 9.1302 17.3904 9.1302 17.4034 9.14229L20.0551 11.8627L19.9247 11.8578C19.8791 11.8556 19.8487 11.8765 19.8335 11.9204C19.7987 12.0193 19.8172 12.1073 19.8889 12.1842C19.9302 12.2293 19.9774 12.2667 20.0307 12.2963C20.2958 12.448 20.5044 12.6646 20.6565 12.9459C20.6786 12.9871 20.6851 13.035 20.6748 13.0807C20.6645 13.1264 20.6382 13.1667 20.6006 13.1941C20.5631 13.2216 20.517 13.2343 20.4709 13.2299C20.4248 13.2255 20.3819 13.2043 20.3501 13.1702C19.8623 12.6525 19.6536 12.5761 19.7243 12.941C17.7641 11.0098 15.8214 9.04941 13.896 7.05992C13.1446 6.28171 12.3069 5.62551 12.0054 4.52745C11.7424 3.57557 11.8201 2.6215 12.2384 1.66523C12.2474 1.64465 12.2611 1.62657 12.2785 1.61256C12.2958 1.59855 12.3163 1.58902 12.3381 1.5848C12.3599 1.58058 12.3825 1.58179 12.4037 1.58834C12.425 1.59488 12.4443 1.60656 12.4601 1.62236L22.068 11.3401Z" fill="#2F2F2F"/>
<path d="M38.5456 9.18516C35.5065 12.1749 32.494 15.1921 29.5081 18.2368C29.4777 18.2675 29.4489 18.2824 29.4217 18.2813C29.3848 18.2813 29.3457 18.2637 29.3044 18.2285C29.2969 18.2221 29.2907 18.2142 29.2865 18.2052C29.2822 18.1962 29.2798 18.1865 29.2795 18.1765C29.2792 18.1665 29.2809 18.1566 29.2847 18.1474C29.2884 18.1382 29.294 18.1299 29.3011 18.123C33.3942 13.9583 37.4851 9.79025 41.5738 5.61892C41.9345 5.2507 42.179 4.82752 42.3072 4.34939C42.309 4.3409 42.3081 4.33205 42.3047 4.3241C42.3012 4.31615 42.2954 4.30951 42.288 4.30512C42.2806 4.30073 42.272 4.29882 42.2634 4.29967C42.2549 4.30051 42.2468 4.30406 42.2404 4.30982L28.9784 17.7141C28.9165 17.7768 28.8546 17.7762 28.7926 17.7125L28.3428 17.2475C28.2863 17.1893 28.2863 17.1316 28.3428 17.0744L43.6046 1.61906C43.6221 1.60112 43.6438 1.5879 43.6677 1.58058C43.6916 1.57326 43.7169 1.57209 43.7413 1.57717C43.7657 1.58224 43.7885 1.5934 43.8076 1.60965C43.8267 1.62589 43.8415 1.64669 43.8507 1.67017C44.3244 2.88365 44.3342 3.99381 43.88 5.00064C43.6779 5.448 43.1661 6.08881 42.3447 6.92308C38.3755 10.9471 34.3699 14.986 30.3279 19.0397C30.2617 19.1057 30.1959 19.1057 30.1307 19.0397L29.6287 18.5352C29.5831 18.4879 29.5831 18.4407 29.6287 18.3934C33.1274 14.7859 36.0405 11.8105 38.3679 9.46709C38.457 9.37696 38.5227 9.28793 38.5651 9.2C38.5858 9.15713 38.5792 9.15218 38.5456 9.18516Z" fill="#2F2F2F"/>
<path d="M21.7045 12.2469L33.6398 24.3256C34.8937 25.6028 36.1497 26.8778 37.408 28.1507C37.4743 28.2177 37.5069 28.2826 37.5058 28.3452C37.5047 28.4496 37.4422 28.52 37.3183 28.5563C37.2744 28.5692 37.2278 28.5701 37.1834 28.5588C37.139 28.5475 37.0984 28.5244 37.0657 28.492L33.9707 25.3758L19.871 11.1274C18.0608 9.28077 16.2489 7.43583 14.4355 5.59253C14.1345 5.28696 13.9123 4.86214 13.7689 4.31805C13.7515 4.2499 13.7672 4.24056 13.8161 4.29002L21.7045 12.2469Z" fill="white"/>
<path d="M19.7568 11.3434L33.9038 25.6776L34.2982 26.1557C34.3243 26.1865 34.3178 26.198 34.2787 26.1903C34.258 26.187 34.2423 26.1799 34.2314 26.1689C33.3969 25.3137 32.5592 24.4767 31.7182 23.6579L20.0551 11.8627L17.4033 9.1423C17.3903 9.13021 17.3773 9.13021 17.3642 9.1423C17.2023 9.30168 17.204 9.28739 17.3691 9.09943C17.3854 9.07965 17.4028 9.0791 17.4213 9.09778L19.7568 11.3434Z" fill="white"/>
<path d="M19.8709 11.1274L33.9706 25.3758C34.0097 25.6451 33.9875 25.7457 33.9038 25.6776L19.7568 11.3434C19.7568 11.1917 19.7949 11.1197 19.8709 11.1274Z" fill="#0A0A0B"/>
<path d="M22.0679 11.3401L34.1075 23.5375C34.1249 23.6771 34.0885 23.7612 33.9983 23.7897C33.9808 23.7949 33.9626 23.7966 33.9446 23.7946C33.9267 23.7926 33.9095 23.7871 33.894 23.7782L33.661 23.6413C33.6478 23.6337 33.6325 23.6309 33.6175 23.6333C33.6025 23.6356 33.5888 23.6431 33.5785 23.6544C33.5683 23.6657 33.5622 23.6802 33.5611 23.6955C33.5601 23.7108 33.5643 23.726 33.5729 23.7386L33.8598 24.1492C33.8695 24.1634 33.8755 24.1798 33.8773 24.197C33.879 24.2142 33.8764 24.2315 33.8697 24.2472C33.8629 24.263 33.8524 24.2766 33.8389 24.2869C33.8255 24.2972 33.8097 24.3037 33.793 24.3058L33.6398 24.3256L21.7045 12.2469C21.711 12.1831 21.7078 12.1386 21.6947 12.1133C21.6802 12.083 21.6772 12.049 21.6864 12.0173C21.6956 11.9857 21.7163 11.9584 21.7449 11.9403C21.7735 11.9222 21.8081 11.9144 21.8428 11.9183C21.8774 11.9222 21.9098 11.9376 21.9343 11.9616L22.3515 12.3953C22.3625 12.4072 22.3769 12.4151 22.3928 12.4179C22.4086 12.4207 22.4249 12.4181 22.4391 12.4106C22.4534 12.4032 22.4648 12.3911 22.4716 12.3764C22.4785 12.3618 22.4804 12.3452 22.477 12.3293C22.4716 12.3007 22.4553 12.2716 22.4281 12.2419C22.2173 12.0111 22.0245 11.7643 21.8495 11.5016C21.8159 11.4511 21.8256 11.4115 21.8789 11.3829C21.9245 11.3576 21.9875 11.3434 22.0679 11.3401ZM25.0765 15.0044C25.0902 14.9904 25.0978 14.9715 25.0977 14.9519C25.0976 14.9322 25.0898 14.9134 25.076 14.8995L23.0347 12.8561C23.0279 12.8492 23.0198 12.8438 23.0109 12.8401C23.0019 12.8364 22.9924 12.8346 22.9828 12.8346C22.9731 12.8347 22.9636 12.8367 22.9547 12.8404C22.9458 12.8442 22.9378 12.8497 22.931 12.8566L22.9058 12.8824C22.8921 12.8964 22.8845 12.9153 22.8846 12.935C22.8847 12.9547 22.8925 12.9735 22.9063 12.9873L24.9476 15.0308C24.9544 15.0376 24.9625 15.043 24.9714 15.0467C24.9804 15.0504 24.9899 15.0523 24.9995 15.0522C25.0092 15.0522 25.0187 15.0502 25.0276 15.0464C25.0365 15.0426 25.0445 15.0371 25.0513 15.0302L25.0765 15.0044ZM26.0643 16.2137C26.5337 16.7633 27.0411 17.2722 27.5866 17.7405C27.6518 17.7954 27.7284 17.8048 27.8164 17.7685C27.9098 17.73 27.9196 17.6756 27.8457 17.6053L25.6911 15.5196C25.6787 15.5054 25.6614 15.4967 25.6427 15.4955C25.6241 15.4943 25.6057 15.5006 25.5916 15.513C25.5776 15.5255 25.569 15.5431 25.5678 15.562C25.5666 15.5808 25.5728 15.5994 25.5851 15.6136C25.7329 15.8137 25.8926 16.0137 26.0643 16.2137ZM29.1642 19.0842C29.0893 18.9666 28.9975 18.8627 28.8888 18.7726C28.8723 18.7583 28.8522 18.7522 28.833 18.7557C28.8138 18.7592 28.7971 18.772 28.7865 18.7912C28.7759 18.8105 28.7723 18.8346 28.7765 18.8583C28.7808 18.882 28.7924 18.9034 28.8089 18.9177L29.1871 19.2573C29.2338 19.3002 29.2648 19.2909 29.28 19.2293C29.2876 19.2007 29.2821 19.1705 29.2637 19.1386C29.2571 19.1276 29.249 19.1199 29.2392 19.1155C29.2251 19.1089 29.2104 19.1051 29.1952 19.104C29.1822 19.1018 29.1719 19.0952 29.1642 19.0842ZM29.9678 20.0784C29.9688 20.0883 29.9721 20.096 29.9775 20.1015C29.987 20.112 29.9995 20.118 30.0127 20.1183C30.0259 20.1186 30.0389 20.1133 30.0492 20.1033C30.0595 20.0933 30.0663 20.0794 30.0684 20.0641C30.0705 20.0489 30.0678 20.0334 30.0607 20.0207C29.9781 19.8723 29.8624 19.7498 29.7135 19.653C29.7025 19.6465 29.6896 19.6437 29.6769 19.6452C29.6642 19.6468 29.6523 19.6524 29.6431 19.6614C29.6339 19.6703 29.6278 19.6821 29.6258 19.6949C29.6238 19.7077 29.626 19.7208 29.632 19.7322C29.7124 19.8641 29.8173 19.9718 29.9466 20.0553C29.9596 20.0641 29.9667 20.0718 29.9678 20.0784ZM31.5976 21.5145C31.5433 21.4364 31.471 21.3705 31.3808 21.3166C31.3581 21.3041 31.3316 21.3004 31.3064 21.3063C31.2812 21.3122 31.259 21.3272 31.244 21.3485C31.2289 21.3698 31.2221 21.3959 31.2248 21.4219C31.2275 21.4479 31.2395 21.472 31.2586 21.4897L31.9333 22.0849C32.2191 22.3366 32.2669 22.302 32.0768 21.9811C32.0061 21.8635 31.8747 21.7497 31.6823 21.6398L31.5976 21.5145ZM32.98 23.0242C32.9995 23.0044 32.9953 22.9623 32.9685 22.9073C32.9416 22.8522 32.8941 22.7887 32.8366 22.7307C32.8081 22.702 32.7779 22.6754 32.7479 22.6527C32.7179 22.6299 32.6885 22.6112 32.6615 22.5979C32.6345 22.5845 32.6104 22.5766 32.5906 22.5747C32.5707 22.5728 32.5555 22.5768 32.5459 22.5866C32.5264 22.6065 32.5305 22.6485 32.5574 22.7036C32.5843 22.7586 32.6317 22.8221 32.6893 22.8802C32.7178 22.9089 32.7479 22.9354 32.778 22.9582C32.808 22.981 32.8373 22.9996 32.8643 23.013C32.8913 23.0264 32.9154 23.0343 32.9353 23.0362C32.9551 23.0381 32.9703 23.034 32.98 23.0242Z" fill="#0A0A0B"/>
<path d="M20.0551 11.8627L31.7182 23.6578C31.7954 23.7864 31.6557 23.8348 31.2994 23.8029C31.2266 23.7963 31.1956 23.8299 31.2065 23.9035L31.2602 24.2514C31.27 24.3184 31.2423 24.3465 31.1771 24.3355C31.0875 24.3223 31.0337 24.2728 30.9718 24.1838C30.9229 24.1134 30.8604 24.0942 30.7843 24.1261L19.7243 12.941C19.6536 12.5761 19.8623 12.6525 20.3501 13.1702C20.3819 13.2042 20.4248 13.2255 20.4709 13.2299C20.517 13.2343 20.5631 13.2216 20.6006 13.1941C20.6382 13.1667 20.6645 13.1264 20.6748 13.0807C20.6851 13.035 20.6786 12.9871 20.6565 12.9459C20.5044 12.6645 20.2958 12.448 20.0307 12.2963C19.9774 12.2667 19.9302 12.2293 19.8889 12.1842C19.8172 12.1073 19.7987 12.0193 19.8335 11.9204C19.8487 11.8764 19.8791 11.8556 19.9247 11.8578L20.0551 11.8627ZM27.0489 19.6089C27.0624 19.5938 27.0684 19.5721 27.0665 19.545C27.0646 19.518 27.0549 19.4861 27.038 19.4512C27.021 19.4163 26.9971 19.379 26.9676 19.3416C26.9382 19.3042 26.9037 19.2673 26.8662 19.233C26.8288 19.1988 26.789 19.1678 26.7492 19.1419C26.7094 19.1161 26.6704 19.0958 26.6343 19.0822C26.5983 19.0687 26.566 19.0622 26.5392 19.063C26.5124 19.0638 26.4916 19.072 26.4781 19.0871C26.4646 19.1023 26.4587 19.124 26.4605 19.151C26.4624 19.1781 26.4721 19.21 26.4891 19.2449C26.5061 19.2798 26.53 19.317 26.5594 19.3544C26.5889 19.3919 26.6233 19.4288 26.6608 19.463C26.6983 19.4973 26.7381 19.5282 26.7779 19.5541C26.8176 19.58 26.8567 19.6003 26.8927 19.6138C26.9288 19.6273 26.9611 19.6339 26.9879 19.633C27.0147 19.6322 27.0354 19.624 27.0489 19.6089Z" fill="#0A0A0B"/>
<path d="M25.076 14.8995L23.0347 12.8561C23.0059 12.8273 22.9595 12.8275 22.931 12.8567L22.9058 12.8824C22.8773 12.9116 22.8775 12.9585 22.9063 12.9874L24.9476 15.0308C24.9764 15.0596 25.0228 15.0594 25.0513 15.0302L25.0765 15.0045C25.105 14.9753 25.1048 14.9284 25.076 14.8995Z" fill="#2F2F2F"/>
<path d="M26.0643 16.2138C25.8926 16.0137 25.7329 15.8137 25.5851 15.6136C25.5728 15.5994 25.5666 15.5808 25.5678 15.562C25.569 15.5431 25.5776 15.5255 25.5916 15.513C25.6057 15.5006 25.624 15.4943 25.6427 15.4955C25.6613 15.4968 25.6787 15.5054 25.691 15.5196L27.8457 17.6053C27.9196 17.6757 27.9098 17.7301 27.8164 17.7685C27.7283 17.8048 27.6517 17.7955 27.5865 17.7405C27.0411 17.2723 26.5337 16.7633 26.0643 16.2138Z" fill="#2F2F2F"/>
<path d="M29.1952 19.104C29.2104 19.1051 29.2251 19.109 29.2392 19.1155C29.249 19.1199 29.2572 19.1276 29.2637 19.1386C29.2821 19.1705 29.2876 19.2007 29.28 19.2293C29.2648 19.2909 29.2338 19.3002 29.1871 19.2573L28.809 18.9177C28.7924 18.9034 28.7808 18.882 28.7766 18.8583C28.7724 18.8346 28.7759 18.8105 28.7865 18.7912C28.7971 18.772 28.8138 18.7592 28.833 18.7557C28.8522 18.7522 28.8723 18.7583 28.8888 18.7726C28.9975 18.8627 29.0893 18.9666 29.1643 19.0842C29.1719 19.0952 29.1822 19.1018 29.1952 19.104Z" fill="#2F2F2F"/>
<path d="M26.6608 19.463C26.8184 19.6071 26.9922 19.6724 27.0489 19.6089C27.1056 19.5454 27.0238 19.3771 26.8662 19.233C26.7086 19.089 26.5348 19.0237 26.4781 19.0872C26.4214 19.1507 26.5032 19.3189 26.6608 19.463Z" fill="#2F2F2F"/>
<path d="M29.9465 20.0554C29.8172 19.9718 29.7124 19.8641 29.632 19.7322C29.626 19.7208 29.6238 19.7077 29.6258 19.6949C29.6278 19.6821 29.6339 19.6704 29.6431 19.6614C29.6523 19.6524 29.6642 19.6468 29.6769 19.6453C29.6896 19.6438 29.7025 19.6465 29.7135 19.6531C29.8623 19.7498 29.9781 19.8723 30.0606 20.0207C30.0678 20.0335 30.0705 20.0489 30.0684 20.0642C30.0663 20.0794 30.0594 20.0933 30.0492 20.1033C30.0389 20.1133 30.0259 20.1187 30.0127 20.1183C29.9995 20.118 29.987 20.112 29.9775 20.1015C29.9721 20.096 29.9688 20.0883 29.9677 20.0784C29.9666 20.0718 29.9596 20.0641 29.9465 20.0554Z" fill="#2F2F2F"/>
<path d="M21.0917 26.9339L27.0699 20.9325C27.1134 20.8896 27.1563 20.8896 27.1987 20.9325L27.7512 21.4947C27.763 21.5066 27.7723 21.5207 27.7787 21.5362C27.7851 21.5517 27.7884 21.5683 27.7884 21.585C27.7884 21.6018 27.7851 21.6183 27.7787 21.6336C27.7723 21.6489 27.763 21.6628 27.7512 21.6744L19.8709 29.6576C19.8351 29.6939 19.8117 29.7373 19.8009 29.7879C19.7112 30.2198 19.0707 30.6996 18.7692 31.0261C18.7279 31.0711 18.729 31.1151 18.7724 31.158L20.6875 33.0887C20.7071 33.1085 20.7183 33.1353 20.7186 33.1633C20.7189 33.1914 20.7083 33.2184 20.6891 33.2387L20.0258 33.9477C20.0093 33.9651 19.9896 33.979 19.9677 33.9886C19.9459 33.9982 19.9223 34.0033 19.8985 34.0036C19.8747 34.0039 19.8511 33.9994 19.829 33.9904C19.8069 33.9813 19.7868 33.9679 19.7699 33.951L17.6756 31.8323C17.6288 31.7851 17.5821 31.7851 17.5354 31.8323L6.41504 43.0735C6.19881 43.2911 5.98313 43.2911 5.76799 43.0735L4.60266 41.8979C4.56224 41.8572 4.53013 41.8089 4.50817 41.7556C4.48621 41.7024 4.47482 41.6454 4.47467 41.5878C4.47452 41.5302 4.4856 41.4732 4.50729 41.42C4.52897 41.3669 4.56083 41.3186 4.60103 41.278L15.7165 30.0335C15.7407 30.0084 15.7542 29.9748 15.7542 29.9399C15.7542 29.905 15.7407 29.8718 15.7165 29.8472L13.5977 27.7022C13.5794 27.6837 13.5689 27.6588 13.5686 27.6328C13.5683 27.6069 13.5782 27.582 13.5961 27.5637L14.336 26.8086C14.3447 26.7996 14.3552 26.7924 14.3667 26.7875C14.3782 26.7826 14.3906 26.7801 14.4032 26.7801C14.4158 26.7801 14.4283 26.7826 14.4399 26.7875C14.4516 26.7924 14.4623 26.7996 14.4713 26.8086L16.3912 28.7591C16.4423 28.8096 16.4934 28.8102 16.5445 28.7607C16.827 28.4947 17.0937 28.2221 17.3447 27.9429C17.5305 27.7368 17.7473 27.7813 17.9249 27.6C20.5272 24.9521 23.1437 22.3191 25.7742 19.7008C25.8242 19.6514 25.8747 19.6508 25.9258 19.6992L26.4001 20.146C26.4113 20.1565 26.4202 20.1691 26.4265 20.1832C26.4327 20.1973 26.4361 20.2126 26.4364 20.2281C26.4367 20.2436 26.4339 20.2591 26.4283 20.2736C26.4226 20.2881 26.4141 20.3013 26.4033 20.3125L18.6078 28.2249C18.5886 28.2445 18.5738 28.2682 18.5644 28.2943C18.5551 28.3203 18.5515 28.3481 18.5538 28.3757C18.5561 28.4033 18.5643 28.43 18.5779 28.4541C18.5914 28.4781 18.61 28.4989 18.6323 28.515C18.7866 28.6261 18.9224 28.6123 19.0397 28.4738C19.0995 28.4046 19.1315 28.3672 19.1359 28.3617C21.6719 25.8007 24.2101 23.2412 26.7505 20.6835C26.7651 20.6688 26.783 20.6579 26.8026 20.6519C26.8222 20.6458 26.8429 20.6448 26.8629 20.6489L26.9412 20.6654C26.953 20.6678 26.9639 20.6734 26.9728 20.6816C26.9817 20.6898 26.9883 20.7003 26.9918 20.7119C26.9953 20.7236 26.9956 20.736 26.9927 20.7478C26.9899 20.7596 26.9839 20.7705 26.9754 20.7791C26.0279 21.7563 25.0804 22.7246 24.133 23.6842C23.2577 24.5712 22.1462 25.8111 21.0966 26.8234C21.0727 26.8465 21.0569 26.8751 21.0493 26.9092C21.0363 26.9674 21.0504 26.9757 21.0917 26.9339ZM14.5756 27.633C14.5528 27.4736 14.4751 27.3417 14.3425 27.2373C14.3111 27.2087 14.273 27.1964 14.2369 27.2029C14.2007 27.2095 14.1693 27.2344 14.1496 27.2723C14.13 27.3101 14.1236 27.3577 14.132 27.4046C14.1403 27.4516 14.1627 27.494 14.1942 27.5225C14.2725 27.6016 14.3637 27.6654 14.468 27.7137C14.5528 27.7533 14.5887 27.7264 14.5756 27.633ZM15.2786 28.4275C15.3049 28.4048 15.3115 28.3608 15.2967 28.3049C15.2819 28.2491 15.2471 28.186 15.1999 28.1297C15.1526 28.0733 15.0968 28.0282 15.0448 28.0044C14.9927 27.9805 14.9486 27.9798 14.9223 28.0025C14.8959 28.0251 14.8894 28.0692 14.9041 28.125C14.9189 28.1809 14.9537 28.2439 15.001 28.3003C15.0482 28.3566 15.104 28.4017 15.1561 28.4255C15.2081 28.4494 15.2522 28.4501 15.2786 28.4275ZM17.6904 28.1105C17.6807 28.1007 17.6692 28.0929 17.6566 28.0876C17.6439 28.0822 17.6304 28.0795 17.6167 28.0795C17.603 28.0794 17.5894 28.0822 17.5767 28.0874C17.5641 28.0927 17.5526 28.1005 17.5429 28.1103L16.774 28.8853C16.7643 28.8951 16.7566 28.9067 16.7513 28.9195C16.746 28.9323 16.7433 28.946 16.7433 28.9599C16.7433 28.9738 16.746 28.9875 16.7512 29.0003C16.7564 29.0131 16.7641 29.0248 16.7737 29.0346L16.7806 29.0416C16.7903 29.0514 16.8018 29.0592 16.8144 29.0645C16.8271 29.0698 16.8406 29.0726 16.8543 29.0726C16.868 29.0726 16.8816 29.0699 16.8943 29.0646C16.9069 29.0594 16.9184 29.0516 16.9281 29.0418L17.697 28.2667C17.7067 28.257 17.7144 28.2453 17.7197 28.2325C17.725 28.2198 17.7277 28.206 17.7277 28.1922C17.7277 28.1783 17.7251 28.1646 17.7198 28.1518C17.7146 28.139 17.707 28.1273 17.6973 28.1175L17.6904 28.1105ZM18.1035 28.6938C18.1151 28.682 18.1244 28.668 18.1307 28.6526C18.137 28.6372 18.1402 28.6207 18.1402 28.604C18.1402 28.5873 18.137 28.5708 18.1307 28.5554C18.1244 28.54 18.1151 28.526 18.1035 28.5142L18.0919 28.5026C18.0803 28.4908 18.0665 28.4814 18.0512 28.4751C18.036 28.4687 18.0197 28.4654 18.0032 28.4654C17.9867 28.4654 17.9704 28.4687 17.9552 28.4751C17.9399 28.4814 17.9261 28.4908 17.9145 28.5026L17.1792 29.2464C17.1675 29.2582 17.1583 29.2722 17.152 29.2876C17.1457 29.303 17.1424 29.3195 17.1424 29.3362C17.1424 29.3528 17.1457 29.3693 17.152 29.3847C17.1583 29.4002 17.1675 29.4141 17.1792 29.4259L17.1907 29.4376C17.2024 29.4494 17.2162 29.4587 17.2314 29.4651C17.2467 29.4715 17.263 29.4748 17.2795 29.4748C17.2959 29.4748 17.3123 29.4715 17.3275 29.4651C17.3427 29.4587 17.3566 29.4494 17.3682 29.4376L18.1035 28.6938ZM15.9269 29.0184C15.9386 29.0052 15.9439 28.9864 15.9425 28.9631C15.9411 28.9398 15.933 28.9125 15.9187 28.8828C15.9044 28.853 15.8842 28.8213 15.8592 28.7896C15.8342 28.7579 15.8049 28.7267 15.773 28.6978C15.7411 28.669 15.7072 28.643 15.6732 28.6214C15.6392 28.5998 15.6059 28.583 15.5751 28.5719C15.5442 28.5609 15.5165 28.5558 15.4935 28.557C15.4705 28.5582 15.4526 28.5656 15.4409 28.5788C15.4292 28.5921 15.4239 28.6109 15.4253 28.6341C15.4267 28.6574 15.4348 28.6847 15.4491 28.7145C15.4634 28.7442 15.4836 28.7759 15.5086 28.8076C15.5336 28.8394 15.5629 28.8705 15.5948 28.8994C15.6267 28.9283 15.6606 28.9543 15.6946 28.9759C15.7286 28.9975 15.7619 29.0143 15.7927 29.0253C15.8236 29.0364 15.8513 29.0414 15.8743 29.0403C15.8973 29.0391 15.9152 29.0317 15.9269 29.0184ZM19.3714 29.9691C19.3815 29.9588 19.3895 29.9466 19.3949 29.9332C19.4004 29.9198 19.4031 29.9054 19.4031 29.8909C19.403 29.8764 19.4002 29.862 19.3946 29.8486C19.3891 29.8353 19.381 29.8231 19.3708 29.8129L18.973 29.4132C18.9628 29.403 18.9508 29.3949 18.9375 29.3894C18.9242 29.3839 18.91 29.3811 18.8957 29.3812C18.8813 29.3812 18.8671 29.3841 18.8539 29.3897C18.8407 29.3953 18.8287 29.4035 18.8186 29.4138L18.079 30.1672C18.0689 30.1775 18.0609 30.1897 18.0554 30.2031C18.05 30.2165 18.0472 30.2309 18.0473 30.2454C18.0473 30.2599 18.0502 30.2743 18.0557 30.2877C18.0612 30.3011 18.0693 30.3132 18.0795 30.3234L18.4773 30.7231C18.4875 30.7333 18.4996 30.7414 18.5129 30.7469C18.5261 30.7524 18.5403 30.7552 18.5547 30.7552C18.569 30.7551 18.5832 30.7522 18.5964 30.7466C18.6097 30.741 18.6217 30.7328 18.6318 30.7225L19.3714 29.9691ZM16.1908 31.7631C16.1928 31.7687 16.1962 31.7738 16.2006 31.7779C16.2049 31.782 16.2102 31.7849 16.2159 31.7865C16.2217 31.7881 16.2277 31.7884 16.2335 31.7871C16.2394 31.7859 16.2448 31.7833 16.2495 31.7796C16.281 31.7554 16.2875 31.7125 16.269 31.651C16.1517 31.2454 15.8833 31.0623 15.4639 31.1019C15.3954 31.1085 15.3922 31.1278 15.4541 31.1596C15.8127 31.3426 16.0245 31.2932 16.1908 31.7631ZM15.2748 31.5735C15.2585 31.5405 15.2482 31.5427 15.2438 31.5801C15.2156 31.8263 15.3156 32.0362 15.5437 32.2099C15.6622 32.3 15.9414 32.3852 16.3815 32.4654C16.3989 32.4687 16.413 32.4665 16.4238 32.4588C16.438 32.4489 16.4472 32.4358 16.4516 32.4193C16.455 32.4044 16.453 32.3888 16.4461 32.3757C16.4391 32.3625 16.4277 32.3528 16.4141 32.3484L15.6073 32.0681C15.5432 32.045 15.4954 32.0032 15.4639 31.9428L15.2748 31.5735ZM18.8052 31.7922C18.7945 31.7813 18.7818 31.7727 18.7677 31.7668C18.7537 31.7609 18.7387 31.7578 18.7235 31.7578C18.7083 31.7578 18.6932 31.7608 18.6792 31.7666C18.6651 31.7725 18.6524 31.7811 18.6416 31.7919L18.637 31.7966C18.6262 31.8074 18.6177 31.8203 18.6118 31.8345C18.606 31.8487 18.603 31.8639 18.6029 31.8793C18.6029 31.8947 18.6059 31.9099 18.6117 31.9241C18.6175 31.9383 18.626 31.9512 18.6367 31.9621L19.7664 33.109C19.7772 33.1199 19.7899 33.1285 19.8039 33.1344C19.818 33.1403 19.833 33.1434 19.8482 33.1434C19.8634 33.1434 19.8784 33.1404 19.8925 33.1346C19.9065 33.1287 19.9193 33.1201 19.9301 33.1093L19.9347 33.1046C19.9455 33.0938 19.954 33.0809 19.9599 33.0667C19.9657 33.0525 19.9687 33.0373 19.9687 33.0219C19.9688 33.0065 19.9658 32.9913 19.96 32.9771C19.9542 32.9629 19.9457 32.95 19.935 32.9391L18.8052 31.7922ZM14.9798 32.477L15.1884 32.8859C15.1928 32.8946 15.2001 32.9014 15.209 32.9052C15.218 32.9089 15.2279 32.9094 15.2371 32.9064C15.2463 32.9034 15.2542 32.8972 15.2593 32.8889C15.2644 32.8807 15.2664 32.8708 15.265 32.8611C15.2161 32.4138 14.9717 32.1687 14.5316 32.1258C14.521 32.1234 14.5099 32.1252 14.5006 32.1309C14.4913 32.1365 14.4845 32.1455 14.4816 32.1561C14.4787 32.1666 14.4799 32.1779 14.4849 32.1876C14.49 32.1973 14.4985 32.2047 14.5088 32.2082L14.8608 32.3649C14.9124 32.3872 14.9545 32.4269 14.9798 32.477ZM14.5104 33.0837L14.3116 32.6831C14.307 32.6741 14.2996 32.667 14.2905 32.6628C14.2814 32.6587 14.2712 32.6578 14.2616 32.6603C14.2519 32.6628 14.2434 32.6685 14.2374 32.6765C14.2314 32.6846 14.2282 32.6944 14.2285 32.7045C14.2692 33.3739 14.8576 33.4217 15.3677 33.5239C15.386 33.5262 15.4045 33.5215 15.4197 33.5109C15.4348 33.5002 15.4455 33.4842 15.4498 33.4661C15.454 33.4479 15.4515 33.4288 15.4427 33.4124C15.4338 33.396 15.4193 33.3834 15.4019 33.3772L14.5772 33.1398C14.5629 33.1356 14.5495 33.1285 14.538 33.1189C14.5265 33.1092 14.5171 33.0972 14.5104 33.0837ZM13.6271 33.2717C13.9096 33.342 14.0883 33.5179 14.1633 33.7993C14.167 33.8137 14.1759 33.8263 14.1882 33.8347C14.2006 33.8431 14.2154 33.8468 14.23 33.8449C14.2445 33.8431 14.2577 33.8359 14.2671 33.8247C14.2764 33.8136 14.2813 33.7992 14.2806 33.7844C14.2817 33.5107 14.1638 33.3123 13.9269 33.1892C13.7835 33.1145 13.6759 33.1106 13.6042 33.1777C13.5543 33.2239 13.5619 33.2552 13.6271 33.2717ZM13.3924 33.7927C13.3652 33.7674 13.3489 33.7734 13.3435 33.8108C13.2815 34.2378 14.1682 34.3961 14.4452 34.4373C14.4637 34.4395 14.4784 34.4181 14.4892 34.373C14.4916 34.363 14.4919 34.3527 14.4901 34.3425C14.4883 34.3324 14.4844 34.3228 14.4788 34.3143C14.4731 34.3058 14.4657 34.2985 14.4572 34.293C14.4486 34.2875 14.439 34.2839 14.4289 34.2823C14.028 34.2263 13.6825 34.0631 13.3924 33.7927ZM12.5856 34.1455C12.88 34.2257 13.0941 34.4 13.2277 34.6682C13.2625 34.7385 13.2875 34.7352 13.3027 34.6583C13.3744 34.2988 12.8675 34.0334 12.5905 34.0763C12.4796 34.0927 12.478 34.1158 12.5856 34.1455ZM13.319 35.4282C13.3842 35.4546 13.4451 35.4519 13.5016 35.42C13.5798 35.3771 13.5765 35.3419 13.4918 35.3145L12.6508 35.0441C12.6274 35.0369 12.6058 35.0245 12.5875 35.0077C12.5691 34.9909 12.5546 34.9701 12.5448 34.9468L12.3933 34.5808C12.3552 34.4906 12.3319 34.4939 12.3232 34.5907C12.2547 35.293 12.8708 35.2518 13.319 35.4282ZM11.7397 35.1413C12.0266 35.2436 12.2238 35.4354 12.3313 35.7168C12.3366 35.7286 12.3457 35.7382 12.3572 35.744C12.3687 35.7498 12.3818 35.7513 12.3943 35.7484C12.4068 35.7455 12.418 35.7383 12.4258 35.728C12.4336 35.7177 12.4377 35.705 12.4373 35.692C12.4058 35.2227 12.1602 34.9963 11.7006 35.0127C11.6927 35.013 11.685 35.0148 11.6779 35.018C11.6707 35.0213 11.6643 35.026 11.659 35.0319C11.6536 35.0377 11.6495 35.0446 11.6469 35.052C11.6442 35.0595 11.6431 35.0675 11.6435 35.0754C11.6468 35.1271 11.6653 35.1485 11.699 35.1397C11.7131 35.1364 11.7267 35.1369 11.7397 35.1413ZM11.8147 36.2295C12.0608 36.2988 12.2971 36.3894 12.5497 36.4274C12.5754 36.4335 12.6025 36.429 12.625 36.415C12.6475 36.4009 12.6635 36.3784 12.6695 36.3523C12.6756 36.3263 12.6712 36.2989 12.6573 36.2762C12.6433 36.2535 12.6211 36.2373 12.5954 36.2312L11.8424 35.9773C11.7783 35.9553 11.7278 35.9152 11.6908 35.8569L11.4871 35.5354C11.4782 35.5201 11.4643 35.5085 11.4478 35.5025C11.4313 35.4965 11.4132 35.4965 11.3968 35.5026C11.3803 35.5087 11.3665 35.5204 11.3577 35.5357C11.3488 35.5511 11.3456 35.569 11.3485 35.5865C11.3996 35.9415 11.555 36.1559 11.8147 36.2295ZM11.3583 36.5164C11.2345 36.1757 10.9835 36.0449 10.6053 36.124C10.5937 36.1265 10.5831 36.1328 10.5752 36.1419C10.5674 36.151 10.5626 36.1625 10.5617 36.1745C10.5608 36.1866 10.5638 36.1986 10.5702 36.2088C10.5765 36.219 10.586 36.2269 10.5972 36.2312C10.8906 36.3433 11.116 36.5356 11.2736 36.8082C11.2826 36.8234 11.2965 36.8351 11.3129 36.8414C11.3293 36.8477 11.3473 36.8482 11.364 36.8429C11.3808 36.8375 11.3953 36.8267 11.4052 36.812C11.4151 36.7974 11.4198 36.7798 11.4186 36.7621C11.4121 36.6928 11.392 36.6109 11.3583 36.5164ZM11.3795 37.3968C11.8424 37.4133 11.8565 37.3457 11.4219 37.194C11.2795 37.1435 11.0628 37.0808 10.7716 37.0061C10.7191 36.9923 10.6733 36.9595 10.6428 36.9137L10.4163 36.5774C10.4097 36.5662 10.4018 36.5573 10.3932 36.5512C10.3845 36.5451 10.3752 36.5419 10.3658 36.5419C10.3564 36.5419 10.347 36.5449 10.3383 36.5509C10.3295 36.557 10.3216 36.5658 10.3148 36.5769C10.3081 36.5881 10.3027 36.6013 10.299 36.6159C10.2953 36.6305 10.2933 36.6462 10.2932 36.662C10.2931 36.6778 10.2948 36.6935 10.2983 36.7081C10.3018 36.7227 10.307 36.736 10.3136 36.7472C10.52 37.1616 10.8753 37.3781 11.3795 37.3968ZM10.4098 37.6277C10.3951 37.3325 9.95015 36.8214 9.64211 37.0176C9.56279 37.0682 9.56876 37.1056 9.66004 37.1297C9.94906 37.2056 10.156 37.382 10.281 37.659C10.2869 37.6742 10.298 37.6868 10.3123 37.6944C10.3266 37.7019 10.3432 37.704 10.3589 37.7002C10.3746 37.6964 10.3884 37.6869 10.3978 37.6736C10.4071 37.6602 10.4114 37.6439 10.4098 37.6277ZM10.2288 38.2987C10.3429 38.3493 10.4641 38.3817 10.5923 38.396C10.6085 38.3977 10.6247 38.3942 10.6388 38.3859C10.6528 38.3777 10.6639 38.3651 10.6705 38.3501C10.677 38.335 10.6786 38.3182 10.6751 38.3022C10.6716 38.2861 10.6632 38.2716 10.651 38.2608C10.2044 37.8667 9.64048 38.236 9.48564 37.415C9.48377 37.4058 9.47961 37.3974 9.47357 37.3903C9.46753 37.3833 9.4598 37.378 9.45113 37.3748C9.44246 37.3717 9.43314 37.3708 9.42406 37.3724C9.41497 37.3739 9.40644 37.3778 9.39926 37.3836C9.37427 37.4034 9.36666 37.4298 9.37644 37.4628C9.51335 37.9195 9.53617 38.1849 10.0854 38.2575C10.1354 38.2641 10.1832 38.2778 10.2288 38.2987ZM9.43512 38.668C9.46771 38.3135 9.18086 37.9986 8.80437 38.0662C8.66855 38.0915 8.66584 38.1261 8.79622 38.1701C9.0483 38.2547 9.21835 38.4256 9.30636 38.6828C9.31133 38.6976 9.32121 38.7103 9.3343 38.7187C9.34739 38.7271 9.36287 38.7307 9.3781 38.729C9.39332 38.7272 9.40734 38.7202 9.41774 38.7091C9.42814 38.6979 9.43429 38.6834 9.43512 38.668ZM8.43929 38.5015C8.41973 38.4509 8.40995 38.4526 8.40995 38.5064C8.40832 39.1973 9.00321 39.3127 9.53291 39.4099C9.59593 39.422 9.61929 39.3973 9.60299 39.3358C9.59321 39.2984 9.56768 39.2627 9.52639 39.2286C9.49372 39.2009 9.45235 39.1852 9.40904 39.1841C8.92987 39.1654 8.60662 38.9379 8.43929 38.5015ZM7.69771 39.0538C8.05193 39.1187 8.29967 39.3138 8.44092 39.6391C8.44317 39.6462 8.44676 39.6527 8.4515 39.6583C8.45624 39.6639 8.46203 39.6686 8.46853 39.6719C8.47504 39.6753 8.48214 39.6773 8.48943 39.6779C8.49672 39.6785 8.50405 39.6777 8.511 39.6754C8.51796 39.6731 8.5244 39.6695 8.52997 39.6647C8.53554 39.6599 8.54012 39.654 8.54344 39.6475C8.54677 39.6409 8.54879 39.6337 8.54938 39.6263C8.54996 39.619 8.54911 39.6115 8.54686 39.6045C8.44689 39.1538 8.16439 38.9483 7.69934 38.9879C7.6907 38.9876 7.68232 38.9909 7.67606 38.9969C7.66979 39.003 7.66615 39.0113 7.66593 39.02C7.66572 39.0288 7.66894 39.0372 7.6749 39.0436C7.68086 39.0499 7.68907 39.0536 7.69771 39.0538ZM7.47769 39.4693C7.47769 39.4561 7.47769 39.4413 7.47769 39.4248C7.47769 39.4243 7.47752 39.4239 7.47721 39.4236C7.4769 39.4233 7.47649 39.4231 7.47606 39.4231C7.47562 39.4231 7.47521 39.4233 7.47491 39.4236C7.4746 39.4239 7.47443 39.4243 7.47443 39.4248C7.40923 40.0859 8.12962 40.2475 8.59738 40.3563C8.62889 40.364 8.65443 40.3503 8.67399 40.3151C8.70332 40.2645 8.69083 40.2294 8.6365 40.2096L7.77758 39.9029C7.73111 39.8858 7.69161 39.854 7.66512 39.8122C7.60318 39.71 7.54397 39.6072 7.48747 39.5039C7.48095 39.4929 7.47769 39.4814 7.47769 39.4693ZM6.67744 40.1189C7.00123 40.198 7.21637 40.3953 7.32285 40.7108C7.32738 40.7235 7.33648 40.7342 7.34835 40.7407C7.36021 40.7472 7.37398 40.7491 7.38691 40.7459C7.39984 40.7428 7.41099 40.7349 7.41814 40.7239C7.4253 40.7128 7.42794 40.6993 7.42553 40.6861C7.3636 40.2563 7.11695 40.0425 6.68559 40.0447C6.67681 40.0453 6.66853 40.049 6.66217 40.0552C6.65582 40.0613 6.65181 40.0695 6.65084 40.0784C6.64986 40.0872 6.652 40.0961 6.65686 40.1035C6.66172 40.1109 6.66901 40.1164 6.67744 40.1189ZM6.47045 40.5179C6.41667 41.156 7.11749 41.2401 7.55755 41.395C7.58254 41.4038 7.60427 41.3978 7.62274 41.3769L7.65371 41.3373C7.6581 41.3324 7.66119 41.3264 7.66267 41.3199C7.66416 41.3134 7.664 41.3066 7.66221 41.3002C7.66042 41.2938 7.65706 41.2879 7.65244 41.2832C7.64782 41.2784 7.64209 41.2749 7.63578 41.273C7.13216 41.1279 6.697 41.09 6.52912 40.513C6.52674 40.5063 6.52221 40.5006 6.51628 40.4967C6.51036 40.4929 6.50339 40.4911 6.49654 40.4917C6.48969 40.4922 6.48337 40.4951 6.47863 40.4999C6.47388 40.5047 6.471 40.511 6.47045 40.5179ZM5.82178 41.0389L6.47045 41.5764C6.49653 41.5984 6.50631 41.5923 6.49979 41.5583C6.43785 41.2565 6.12167 41.0059 5.83318 41.0043C5.79733 41.0032 5.79353 41.0147 5.82178 41.0389ZM6.73611 42.2013C6.33191 42.0348 5.82504 42.0578 5.61642 41.5879C5.59903 41.5495 5.58925 41.5517 5.58708 41.5945C5.55774 42.1172 6.33191 42.2507 6.70352 42.3167C6.71757 42.3181 6.73166 42.3144 6.74333 42.3064C6.75501 42.2984 6.76352 42.2865 6.7674 42.2727C6.77128 42.259 6.77027 42.2443 6.76456 42.2313C6.75884 42.2182 6.74877 42.2076 6.73611 42.2013Z" fill="#2F2F2F"/>
<path d="M31.6823 21.6398C31.8747 21.7497 32.0061 21.8635 32.0768 21.9811C32.2669 22.302 32.2191 22.3366 31.9333 22.0849L31.2586 21.4897C31.2395 21.4721 31.2275 21.4479 31.2248 21.4219C31.2221 21.3959 31.2289 21.3698 31.244 21.3485C31.259 21.3272 31.2812 21.3122 31.3064 21.3063C31.3316 21.3005 31.3581 21.3041 31.3808 21.3166C31.471 21.3705 31.5433 21.4364 31.5976 21.5145L31.6823 21.6398Z" fill="#2F2F2F"/>
<path d="M32.6893 22.8802C32.8092 23.001 32.9393 23.0655 32.98 23.0242C33.0206 22.983 32.9564 22.8515 32.8365 22.7307C32.7167 22.6099 32.5865 22.5454 32.5459 22.5866C32.5052 22.6279 32.5694 22.7593 32.6893 22.8802Z" fill="#2F2F2F"/>
<path d="M34.1075 23.5375C35.4581 24.8774 36.8006 26.2244 38.1349 27.5786C38.2685 27.7137 38.5472 27.7236 38.7314 27.9248C38.9954 28.2128 39.267 28.4914 39.5463 28.7607C39.5908 28.8036 39.6348 28.803 39.6783 28.7591L41.6031 26.8086C41.6256 26.7857 41.6562 26.7729 41.6882 26.7729C41.7203 26.7729 41.7512 26.7857 41.7743 26.8086L42.4963 27.5423C42.5181 27.5641 42.5303 27.5938 42.5303 27.6251C42.5303 27.6563 42.5181 27.6864 42.4963 27.7088L40.3433 29.8802C40.3357 29.8877 40.3297 29.8967 40.3255 29.9066C40.3214 29.9165 40.3193 29.9272 40.3193 29.9379C40.3193 29.9487 40.3214 29.9593 40.3255 29.9692C40.3297 29.9791 40.3357 29.9881 40.3433 29.9956L51.3936 41.1791C51.6587 41.4483 51.6576 41.7165 51.3903 41.9836L50.2478 43.1295C50.1794 43.1981 50.087 43.2364 49.9907 43.2361C49.8945 43.2358 49.8023 43.1969 49.7344 43.1279L38.5325 31.8109C38.4988 31.7768 38.4652 31.7768 38.4315 31.8109L36.272 33.9938C36.2528 34.0124 36.2273 34.0227 36.2007 34.0224C36.1742 34.0221 36.1488 34.0112 36.1302 33.9922L35.4358 33.2783C35.4055 33.2474 35.3885 33.2056 35.3885 33.162C35.3885 33.1185 35.4055 33.0767 35.4358 33.0458L37.3411 31.1299C37.3868 31.0838 37.3835 31.0415 37.3313 31.003C36.9348 30.7084 36.6126 30.3622 36.3649 29.9643C36.1617 29.6389 35.9775 29.3949 35.8123 29.2322C34.1162 27.5494 32.4402 25.8474 30.7843 24.1261C30.8604 24.0942 30.9228 24.1134 30.9717 24.1838C31.0337 24.2728 31.0874 24.3223 31.1771 24.3355C31.2423 24.3465 31.27 24.3184 31.2602 24.2514L31.2064 23.9035C31.1956 23.8299 31.2265 23.7963 31.2993 23.8029C31.6557 23.8348 31.7953 23.7864 31.7182 23.6578C32.5592 24.4767 33.3969 25.3137 34.2314 26.1689C34.2423 26.1799 34.258 26.187 34.2787 26.1903C34.3178 26.198 34.3243 26.1865 34.2982 26.1557L33.9038 25.6775C33.9875 25.7457 34.0097 25.6451 33.9706 25.3758L37.0657 28.492C37.0983 28.5244 37.139 28.5475 37.1834 28.5588C37.2278 28.5701 37.2744 28.5692 37.3183 28.5563C37.4422 28.52 37.5047 28.4496 37.5057 28.3452C37.5068 28.2826 37.4742 28.2177 37.4079 28.1507C36.1497 26.8778 34.8937 25.6028 33.6398 24.3256L33.793 24.3058C33.8097 24.3037 33.8255 24.2972 33.8389 24.2869C33.8524 24.2766 33.8629 24.263 33.8697 24.2472C33.8764 24.2315 33.879 24.2142 33.8773 24.197C33.8755 24.1798 33.8695 24.1634 33.8598 24.1492L33.5729 23.7386C33.5643 23.726 33.5601 23.7108 33.5612 23.6955C33.5622 23.6802 33.5683 23.6657 33.5785 23.6544C33.5888 23.6431 33.6025 23.6356 33.6175 23.6333C33.6325 23.6309 33.6478 23.6337 33.661 23.6413L33.894 23.7782C33.9095 23.7871 33.9267 23.7926 33.9446 23.7946C33.9626 23.7966 33.9808 23.7949 33.9983 23.7897C34.0885 23.7612 34.1249 23.6771 34.1075 23.5375ZM41.5385 27.6785C41.5533 27.6907 41.5721 27.6975 41.594 27.6985C41.6158 27.6996 41.6402 27.6949 41.6657 27.6847C41.6912 27.6745 41.7174 27.6591 41.7428 27.6392C41.7681 27.6193 41.7922 27.5954 41.8135 27.5689C41.8348 27.5423 41.853 27.5136 41.8671 27.4845C41.8811 27.4553 41.8907 27.4262 41.8954 27.3988C41.9 27.3714 41.8996 27.3464 41.8941 27.325C41.8886 27.3036 41.8781 27.2863 41.8633 27.2742C41.8486 27.262 41.8297 27.2552 41.8079 27.2541C41.7861 27.2531 41.7617 27.2578 41.7362 27.2679C41.7106 27.2781 41.6844 27.2936 41.6591 27.3135C41.6337 27.3333 41.6097 27.3572 41.5884 27.3838C41.567 27.4103 41.5488 27.439 41.5348 27.4682C41.5207 27.4974 41.5111 27.5265 41.5065 27.5538C41.5019 27.5812 41.5023 27.6063 41.5078 27.6277C41.5133 27.6491 41.5237 27.6663 41.5385 27.6785ZM40.8175 28.4182C40.8425 28.4391 40.8834 28.4385 40.9313 28.4165C40.9792 28.3944 41.0302 28.3527 41.073 28.3006C41.0941 28.2747 41.1127 28.2471 41.1276 28.2193C41.1424 28.1915 41.1533 28.164 41.1595 28.1384C41.1658 28.1128 41.1673 28.0896 41.164 28.0701C41.1607 28.0507 41.1526 28.0353 41.1403 28.0249C41.1153 28.004 41.0744 28.0046 41.0265 28.0267C40.9786 28.0487 40.9277 28.0904 40.8849 28.1426C40.8637 28.1684 40.8451 28.196 40.8303 28.2238C40.8154 28.2517 40.8046 28.2792 40.7983 28.3047C40.7921 28.3303 40.7905 28.3535 40.7938 28.373C40.7971 28.3925 40.8052 28.4078 40.8175 28.4182ZM39.3025 29.0223C39.3223 29.0022 39.3334 28.9749 39.3333 28.9464C39.3332 28.918 39.3219 28.8908 39.302 28.8708L38.5526 28.118C38.5327 28.0979 38.5057 28.0867 38.4776 28.0868C38.4495 28.0869 38.4226 28.0983 38.4028 28.1185L38.3982 28.1232C38.3784 28.1433 38.3673 28.1706 38.3674 28.1991C38.3675 28.2275 38.3788 28.2547 38.3987 28.2747L39.1481 29.0275C39.168 29.0476 39.195 29.0588 39.2231 29.0587C39.2512 29.0586 39.2781 29.0472 39.2979 29.027L39.3025 29.0223ZM38.1833 28.5063C38.1591 28.4814 38.1261 28.4671 38.0915 28.4667C38.0569 28.4664 38.0236 28.4799 37.9989 28.5044L37.9919 28.5113C37.9672 28.5358 37.9531 28.5692 37.9527 28.6042C37.9524 28.6391 37.9658 28.6728 37.99 28.6978L38.6992 29.4305C38.7234 29.4555 38.7565 29.4698 38.791 29.4701C38.8256 29.4705 38.8589 29.457 38.8836 29.4325L38.8906 29.4256C38.9153 29.4011 38.9294 29.3677 38.9298 29.3327C38.9301 29.2977 38.9168 29.264 38.8926 29.2391L38.1833 28.5063ZM40.6319 28.5799C40.6207 28.5677 40.6037 28.5611 40.5817 28.5606C40.5598 28.5601 40.5334 28.5656 40.504 28.5769C40.4746 28.5883 40.4428 28.6051 40.4105 28.6266C40.3781 28.648 40.3458 28.6736 40.3154 28.7019C40.285 28.7302 40.2571 28.7606 40.2332 28.7914C40.2094 28.8222 40.1901 28.8529 40.1765 28.8816C40.1629 28.9102 40.1552 28.9364 40.1539 28.9586C40.1526 28.9807 40.1576 28.9984 40.1688 29.0107C40.1799 29.023 40.197 29.0296 40.2189 29.0301C40.2408 29.0306 40.2673 29.025 40.2967 29.0137C40.326 29.0024 40.3578 28.9855 40.3902 28.9641C40.4226 28.9427 40.4549 28.9171 40.4853 28.8888C40.5157 28.8605 40.5436 28.8301 40.5674 28.7992C40.5912 28.7684 40.6105 28.7378 40.6241 28.7091C40.6377 28.6804 40.6454 28.6543 40.6468 28.6321C40.6481 28.6099 40.643 28.5922 40.6319 28.5799ZM37.9624 30.3643C37.9926 30.333 38.0093 30.2909 38.0087 30.2472C38.0082 30.2034 37.9905 30.1617 37.9596 30.1312L37.2854 29.4656C37.2544 29.4351 37.2128 29.4182 37.1696 29.4188C37.1263 29.4193 37.0851 29.4372 37.0549 29.4685L36.7589 29.7753C36.7288 29.8066 36.7121 29.8487 36.7126 29.8924C36.7132 29.9362 36.7308 29.9779 36.7618 30.0084L37.436 30.674C37.4669 30.7045 37.5086 30.7214 37.5518 30.7208C37.595 30.7203 37.6363 30.7024 37.6665 30.6711L37.9624 30.3643ZM40.0483 31.4267L40.5356 31.191C40.5459 31.1874 40.5544 31.1801 40.5595 31.1704C40.5645 31.1607 40.5657 31.1494 40.5628 31.1388C40.5599 31.1282 40.553 31.1192 40.5437 31.1136C40.5344 31.108 40.5234 31.1061 40.5128 31.1085C40.0841 31.1514 39.8364 31.3443 39.7859 31.7581C39.7772 31.8274 39.7967 31.8373 39.8446 31.7878C39.9 31.7295 39.9347 31.6542 39.9489 31.5619C39.9586 31.4993 39.9918 31.4542 40.0483 31.4267ZM40.5633 31.9741C40.3058 32.1928 39.9983 32.3011 39.6408 32.2989C39.5702 32.2989 39.5593 32.3242 39.6082 32.3748L39.6718 32.4407C39.6759 32.4443 39.6807 32.4471 39.6857 32.4488C39.6907 32.4505 39.696 32.4511 39.7011 32.4506C40.2113 32.3682 40.8208 32.2659 40.8192 31.6559C40.8192 31.5954 40.8029 31.5905 40.7703 31.6411C40.6823 31.7763 40.6888 31.8686 40.5633 31.9741ZM37.4349 31.9662C37.4453 31.9556 37.4535 31.943 37.4591 31.9292C37.4647 31.9154 37.4675 31.9006 37.4674 31.8856C37.4674 31.8707 37.4644 31.8559 37.4586 31.8421C37.4529 31.8284 37.4446 31.8159 37.4341 31.8054L37.4294 31.8007C37.4189 31.7902 37.4065 31.7819 37.3928 31.7762C37.3791 31.7706 37.3645 31.7677 37.3497 31.7678C37.335 31.7679 37.3204 31.7709 37.3067 31.7767C37.2931 31.7825 37.2808 31.7909 37.2704 31.8016L36.1423 32.9547C36.1319 32.9654 36.1237 32.9779 36.1181 32.9918C36.1125 33.0056 36.1097 33.0204 36.1098 33.0353C36.1099 33.0503 36.1129 33.0651 36.1186 33.0788C36.1243 33.0926 36.1327 33.1051 36.1431 33.1156L36.1478 33.1203C36.1583 33.1308 36.1707 33.1391 36.1844 33.1447C36.1981 33.1504 36.2127 33.1532 36.2275 33.1532C36.2423 33.1531 36.2569 33.1501 36.2705 33.1443C36.2841 33.1385 36.2964 33.13 36.3068 33.1194L37.4349 31.9662ZM41.6357 32.1884C41.6441 32.1863 41.6513 32.1812 41.6558 32.1739C41.6604 32.1667 41.662 32.1579 41.6604 32.1493C41.6588 32.1407 41.654 32.1329 41.6471 32.1273C41.6401 32.1217 41.6314 32.1188 41.6227 32.1192C41.1718 32.1346 40.9023 32.3643 40.8143 32.8084C40.7893 32.9315 40.817 32.9452 40.8974 32.8496C40.9387 32.799 40.9724 32.7457 40.9985 32.6897C41.1484 32.3731 41.2886 32.3072 41.6357 32.1884ZM41.8525 32.5462C41.6787 33.0705 41.3065 33.3299 40.7361 33.3244C40.6817 33.3233 40.6573 33.3503 40.6627 33.4052L40.6692 33.4679C40.6758 33.5261 40.7062 33.5454 40.7605 33.5256C41.3489 33.3145 41.8069 33.3393 41.9014 32.5561C41.921 32.389 41.9047 32.3857 41.8525 32.5462ZM42.6609 33.1793C42.6708 33.1782 42.6799 33.1732 42.6862 33.1653C42.6925 33.1574 42.6954 33.1474 42.6943 33.1373C42.6932 33.1272 42.6883 33.118 42.6805 33.1117C42.6727 33.1054 42.6627 33.1024 42.6528 33.1035C42.2018 33.1123 41.9112 33.3283 41.7808 33.7515C41.7752 33.7668 41.7758 33.7837 41.7825 33.7985C41.7892 33.8134 41.8015 33.8249 41.8167 33.8306C41.8318 33.8363 41.8485 33.8357 41.8632 33.8288C41.8779 33.822 41.8893 33.8096 41.8949 33.7943C42.0405 33.4602 42.2958 33.2552 42.6609 33.1793ZM42.7522 33.6773C42.6913 33.6751 42.6517 33.7229 42.6332 33.8207C42.6234 33.8768 42.5946 33.9202 42.5468 33.951C42.2697 34.129 41.9677 34.2356 41.6406 34.2708C41.6192 34.2716 41.5958 34.2804 41.5755 34.2954C41.5552 34.3103 41.5396 34.3301 41.5323 34.3504C41.5249 34.3708 41.5264 34.39 41.5363 34.4038C41.5462 34.4176 41.5638 34.4249 41.5852 34.4241C42.1328 34.445 42.5392 34.2285 42.8043 33.7745C42.8413 33.713 42.8239 33.6806 42.7522 33.6773ZM43.5899 34.0334C43.1792 34.0581 42.7114 34.3203 42.7 34.744C42.7003 34.7563 42.7047 34.7682 42.7125 34.7776C42.7203 34.7871 42.731 34.7936 42.7429 34.7961C42.7548 34.7986 42.7672 34.7969 42.7781 34.7913C42.789 34.7858 42.7976 34.7766 42.8027 34.7654C42.9548 34.4093 43.221 34.1994 43.6013 34.1356C43.6147 34.1341 43.627 34.1272 43.6354 34.1166C43.6438 34.1059 43.6477 34.0923 43.6461 34.0787C43.6446 34.0652 43.6378 34.0528 43.6273 34.0443C43.6168 34.0358 43.6033 34.0319 43.5899 34.0334ZM42.6397 35.4332C43.4351 35.2699 43.5655 35.232 43.8621 34.4439C43.9099 34.3186 43.8941 34.3104 43.8148 34.4192C43.6986 34.5808 43.6029 34.7539 43.528 34.9386C43.5184 34.9632 43.5033 34.9853 43.4838 35.0033C43.4643 35.0213 43.441 35.0347 43.4155 35.0424L42.5631 35.3079C42.5425 35.3134 42.5359 35.326 42.5436 35.3458L42.5566 35.3854C42.5707 35.4249 42.5984 35.4409 42.6397 35.4332ZM44.3299 34.9913C43.9463 35.0737 43.7111 35.3079 43.6241 35.6937C43.6226 35.7045 43.6247 35.7155 43.6302 35.7248C43.6357 35.7342 43.6441 35.7414 43.6542 35.7453C43.6643 35.7491 43.6754 35.7494 43.6856 35.746C43.6959 35.7426 43.7046 35.7358 43.7105 35.7267C43.8213 35.52 43.9718 35.3414 44.162 35.1908C44.1737 35.181 44.1877 35.1742 44.2027 35.171C44.2983 35.1534 44.3559 35.11 44.3755 35.0408C44.3874 34.999 44.3722 34.9825 44.3299 34.9913ZM44.2549 36.1899C44.533 36.0789 44.6884 35.8371 44.721 35.4645C44.7219 35.4616 44.7221 35.4585 44.7218 35.4555C44.7215 35.4524 44.7206 35.4495 44.7192 35.4468C44.7177 35.4442 44.7158 35.4418 44.7135 35.4399C44.7111 35.4379 44.7084 35.4365 44.7055 35.4356C44.7026 35.4348 44.6996 35.4345 44.6966 35.4348C44.6936 35.4351 44.6907 35.436 44.6881 35.4375C44.6854 35.439 44.6831 35.4409 44.6812 35.4433C44.6793 35.4457 44.6779 35.4484 44.677 35.4513L44.4309 35.9179C44.4059 35.9652 44.3679 35.9965 44.3168 36.0119L43.4644 36.2625C43.4533 36.2661 43.4437 36.2733 43.4371 36.283C43.4305 36.2927 43.4274 36.3044 43.4281 36.3162C43.4289 36.328 43.4335 36.3391 43.4413 36.3479C43.449 36.3567 43.4595 36.3626 43.4709 36.3647C43.7024 36.401 43.9827 36.2988 44.2549 36.1899ZM45.5196 36.0745C45.072 36.1053 44.7971 36.3339 44.6949 36.7604C44.6926 36.7712 44.694 36.7825 44.6989 36.7923C44.7038 36.8022 44.712 36.81 44.722 36.8145C44.7319 36.8189 44.7432 36.8198 44.7537 36.8168C44.7642 36.8139 44.7734 36.8074 44.7797 36.7983L44.9802 36.4933C45.0128 36.4439 45.0546 36.4048 45.1057 36.3763L45.5392 36.1438C45.6413 36.0888 45.6348 36.0657 45.5196 36.0745ZM45.4512 36.9418C45.0959 37.1644 44.8807 37.1627 44.5548 37.2451C44.5412 37.2496 44.5296 37.2586 44.5218 37.2707C44.514 37.2828 44.5106 37.2972 44.5122 37.3115C44.5137 37.3259 44.5201 37.3392 44.5302 37.3494C44.5403 37.3595 44.5536 37.3658 44.5678 37.3672C45.1958 37.3891 45.6028 37.1204 45.7886 36.5609C45.7919 36.5513 45.7916 36.5409 45.7877 36.5317C45.7838 36.5225 45.7766 36.5151 45.7674 36.5108C45.7582 36.5066 45.7477 36.5058 45.7378 36.5086C45.7279 36.5115 45.7193 36.5178 45.7136 36.5263L45.4854 36.9088C45.4768 36.9218 45.4651 36.9331 45.4512 36.9418ZM46.491 37.0077C46.0787 36.9418 45.712 37.3012 45.6679 37.6887C45.6675 37.6996 45.6708 37.7104 45.6773 37.7192C45.6837 37.728 45.693 37.7343 45.7035 37.737C45.714 37.7397 45.7251 37.7387 45.735 37.7341C45.7448 37.7295 45.7528 37.7216 45.7576 37.7117C45.8956 37.3776 46.1411 37.1732 46.4943 37.0984C46.5047 37.096 46.5139 37.0901 46.5204 37.0815C46.5269 37.073 46.5302 37.0625 46.5298 37.0517C46.5294 37.0409 46.5253 37.0307 46.5183 37.0226C46.5112 37.0146 46.5015 37.0093 46.491 37.0077ZM46.6915 37.4479C46.6947 37.4062 46.6904 37.3721 46.6784 37.3457C46.6758 37.3404 46.6716 37.3361 46.6664 37.3334C46.6611 37.3306 46.6552 37.3297 46.6494 37.3306C46.6436 37.3315 46.6382 37.3343 46.6341 37.3385C46.6299 37.3427 46.6272 37.3481 46.6263 37.354C46.4812 38.1223 46.0118 38.0217 45.443 38.2591C45.43 38.2646 45.4251 38.274 45.4284 38.2872C45.4316 38.3014 45.4349 38.3157 45.4381 38.33C45.4468 38.3674 45.4691 38.3817 45.505 38.3729C46.0721 38.2311 46.6214 38.1668 46.6915 37.4479ZM47.4901 38.0662C47.4966 38.0631 47.5019 38.0579 47.5051 38.0514C47.5084 38.045 47.5095 38.0376 47.5082 38.0305C47.5069 38.0233 47.5033 38.0168 47.4979 38.012C47.4926 38.0071 47.4858 38.0041 47.4787 38.0036C46.9843 37.9992 46.6958 38.2437 46.6133 38.7373C46.5991 38.8197 46.6171 38.8274 46.667 38.7603C46.9783 38.3515 46.9979 38.2723 47.4901 38.0662ZM47.3434 39.0044L46.4861 39.2797C46.4758 39.2831 46.4664 39.2889 46.4585 39.2964C46.4507 39.304 46.4446 39.3133 46.4407 39.3235C46.4368 39.3338 46.4352 39.3448 46.436 39.3557C46.4368 39.3667 46.44 39.3773 46.4454 39.3869C46.466 39.422 46.491 39.4325 46.5204 39.4182C47.0533 39.1808 47.6759 39.2896 47.6808 38.5477C47.6819 38.4421 47.6623 38.4377 47.6221 38.5345L47.4771 38.8807C47.4647 38.9097 47.4464 38.9358 47.4234 38.9571C47.4004 38.9784 47.3731 38.9945 47.3434 39.0044ZM48.4321 39.0324C48.4394 39.03 48.4456 39.0252 48.4497 39.0187C48.4537 39.0122 48.4554 39.0044 48.4545 38.9968C48.4535 38.9892 48.4499 38.9821 48.4444 38.9769C48.4388 38.9716 48.4316 38.9685 48.424 38.9681C47.9427 38.9549 47.6406 39.1819 47.5178 39.649C47.5153 39.6583 47.5159 39.6683 47.5195 39.6773C47.5231 39.6863 47.5295 39.6938 47.5377 39.6986C47.5458 39.7034 47.5552 39.7052 47.5644 39.7037C47.5735 39.7022 47.5818 39.6974 47.5879 39.6902C47.9367 39.316 47.8943 39.1791 48.4321 39.0324ZM48.5739 39.377C48.4892 40.0513 47.8976 40.0332 47.4119 40.2162C47.3565 40.2371 47.3494 40.2689 47.3907 40.3118C47.4222 40.3437 47.4705 40.3486 47.5357 40.3267C48.0247 40.1568 48.6994 40.114 48.631 39.3786C48.6308 39.371 48.6276 39.3635 48.6221 39.3579C48.6166 39.3523 48.6092 39.3491 48.6017 39.3489C48.5941 39.3487 48.5869 39.3515 48.5817 39.3568C48.5765 39.362 48.5737 39.3693 48.5739 39.377ZM48.6261 40.6581C48.6185 40.6749 48.6179 40.6941 48.6243 40.7114C48.6307 40.7287 48.6437 40.7427 48.6603 40.7504C48.677 40.758 48.6959 40.7587 48.713 40.7522C48.7302 40.7457 48.744 40.7326 48.7516 40.7158L48.8722 40.4553C48.8755 40.4498 48.8787 40.4448 48.882 40.4404C48.9678 40.3272 49.07 40.247 49.1884 40.1997C49.322 40.1469 49.3182 40.1079 49.177 40.0826C48.9923 40.0486 48.8086 40.2404 48.6261 40.6581ZM48.8168 41.2747C49.2938 41.2549 49.5692 41.0092 49.6431 40.5377C49.667 40.386 49.6431 40.3778 49.5714 40.513L49.3677 40.8988C49.3404 40.9487 49.2964 40.9868 49.2438 41.0059L48.4452 41.278C48.4305 41.2827 48.4177 41.2923 48.4089 41.3051C48.4001 41.3179 48.3957 41.3333 48.3965 41.3489C48.3972 41.3645 48.403 41.3795 48.413 41.3914C48.423 41.4033 48.4366 41.4115 48.4517 41.4148C48.5343 41.4335 48.6044 41.411 48.662 41.3472C48.7017 41.3038 48.7572 41.2778 48.8168 41.2747ZM50.4222 41.0488C50.4406 41.0444 50.4542 41.0334 50.4629 41.0158C50.4912 40.9521 50.4423 40.9306 50.3162 40.9515C49.8838 41.0263 49.6361 41.2488 49.573 41.6193C49.5415 41.8039 49.5698 41.8138 49.6578 41.6489C49.8262 41.3335 50.081 41.1334 50.4222 41.0488ZM50.1728 41.9325L49.3791 42.1716C49.3685 42.175 49.3589 42.1812 49.3515 42.1896C49.3441 42.198 49.3391 42.2082 49.3371 42.2192C49.3351 42.2301 49.3361 42.2413 49.34 42.2515C49.344 42.2618 49.3507 42.2706 49.3595 42.2771C49.4106 42.3167 49.4736 42.3244 49.5486 42.3002C49.9224 42.1749 50.1782 42.0881 50.3162 42.0397C50.3432 42.0304 50.3677 42.0149 50.3881 41.9943C50.4084 41.9738 50.424 41.9487 50.4336 41.921L50.6015 41.428C50.6032 41.4242 50.6041 41.4201 50.6043 41.416C50.6044 41.4118 50.6038 41.4077 50.6023 41.4037C50.6009 41.3998 50.5987 41.3963 50.5959 41.3932C50.5931 41.3902 50.5897 41.3877 50.586 41.386C50.5822 41.3842 50.5782 41.3833 50.5741 41.3831C50.57 41.383 50.5658 41.3836 50.562 41.3851C50.5581 41.3866 50.5546 41.3888 50.5516 41.3916C50.5486 41.3944 50.5461 41.3978 50.5444 41.4016L50.3097 41.8221C50.2793 41.8781 50.2337 41.9149 50.1728 41.9325Z" fill="#2F2F2F"/>
<path d="M14.5756 27.633C14.5886 27.7264 14.5528 27.7533 14.468 27.7138C14.3637 27.6654 14.2724 27.6016 14.1942 27.5225C14.1627 27.494 14.1403 27.4516 14.132 27.4046C14.1236 27.3577 14.1299 27.3101 14.1496 27.2723C14.1693 27.2345 14.2007 27.2095 14.2368 27.203C14.273 27.1964 14.311 27.2087 14.3425 27.2373C14.4751 27.3417 14.5528 27.4736 14.5756 27.633Z" fill="white"/>
<path d="M41.5883 27.3838C41.4986 27.4955 41.4763 27.6274 41.5385 27.6785C41.6007 27.7296 41.7238 27.6805 41.8135 27.5689C41.9032 27.4572 41.9255 27.3253 41.8633 27.2742C41.8012 27.2231 41.678 27.2722 41.5883 27.3838Z" fill="white"/>
<path d="M15.001 28.3003C15.0994 28.4177 15.2237 28.4746 15.2786 28.4275C15.3335 28.3804 15.2983 28.247 15.1999 28.1297C15.1015 28.0123 14.9772 27.9554 14.9223 28.0025C14.8674 28.0496 14.9026 28.1829 15.001 28.3003Z" fill="white"/>
<path d="M40.8848 28.1426C40.7957 28.2512 40.7656 28.3746 40.8175 28.4182C40.8695 28.4618 40.9838 28.4092 41.0729 28.3006C41.1621 28.192 41.1922 28.0686 41.1403 28.025C41.0883 27.9813 40.974 28.034 40.8848 28.1426Z" fill="white"/>
<path d="M17.5428 28.1103L16.774 28.8854C16.7332 28.9265 16.733 28.9933 16.7737 29.0346L16.7806 29.0416C16.8213 29.0829 16.8873 29.083 16.9281 29.0419L17.697 28.2668C17.7378 28.2256 17.7379 28.1588 17.6973 28.1175L17.6904 28.1105C17.6497 28.0692 17.5836 28.0691 17.5428 28.1103Z" fill="white"/>
<path d="M39.302 28.8708L38.5526 28.118C38.5111 28.0763 38.444 28.0765 38.4028 28.1185L38.3982 28.1232C38.3569 28.1652 38.3572 28.233 38.3987 28.2747L39.1481 29.0276C39.1896 29.0693 39.2567 29.069 39.2979 29.027L39.3025 29.0223C39.3437 28.9803 39.3435 28.9125 39.302 28.8708Z" fill="white"/>
<path d="M37.9989 28.5044L37.9919 28.5113C37.9405 28.5623 37.9396 28.6458 37.99 28.6978L38.6993 29.4306C38.7496 29.4826 38.8322 29.4835 38.8836 29.4325L38.8906 29.4256C38.9421 29.3746 38.9429 29.2911 38.8926 29.2391L38.1833 28.5064C38.1329 28.4543 38.0503 28.4534 37.9989 28.5044Z" fill="white"/>
<path d="M18.1034 28.5143L18.0919 28.5026C18.0429 28.453 17.9634 28.453 17.9144 28.5026L17.1792 29.2464C17.1302 29.296 17.1302 29.3764 17.1792 29.426L17.1907 29.4376C17.2397 29.4872 17.3192 29.4872 17.3682 29.4376L18.1034 28.6938C18.1524 28.6442 18.1524 28.5638 18.1034 28.5143Z" fill="white"/>
<path d="M40.4853 28.8888C40.6132 28.7698 40.6788 28.6316 40.6319 28.5799C40.585 28.5283 40.4433 28.5829 40.3154 28.7019C40.1875 28.8208 40.1219 28.9591 40.1688 29.0107C40.2157 29.0623 40.3574 29.0077 40.4853 28.8888Z" fill="white"/>
<path d="M15.5948 28.8994C15.729 29.0208 15.8777 29.0741 15.9269 29.0184C15.9761 28.9628 15.9072 28.8192 15.773 28.6978C15.6388 28.5765 15.4901 28.5232 15.4409 28.5788C15.3917 28.6345 15.4606 28.778 15.5948 28.8994Z" fill="white"/>
<path d="M19.3708 29.8129L18.973 29.4133C18.9302 29.3703 18.8611 29.3705 18.8186 29.4138L18.079 30.1672C18.0365 30.2105 18.0367 30.2805 18.0795 30.3234L18.4773 30.7231C18.5201 30.7661 18.5893 30.7658 18.6318 30.7225L19.3714 29.9691C19.4139 29.9258 19.4136 29.8559 19.3708 29.8129Z" fill="white"/>
<path d="M37.9596 30.1312L37.2854 29.4656C37.221 29.402 37.1178 29.4033 37.0549 29.4685L36.759 29.7753C36.6961 29.8405 36.6974 29.9448 36.7618 30.0084L37.436 30.674C37.5004 30.7376 37.6036 30.7363 37.6665 30.6712L37.9624 30.3644C38.0253 30.2992 38.024 30.1948 37.9596 30.1312Z" fill="white"/>
<path d="M16.1908 31.7631C16.0245 31.2932 15.8127 31.3426 15.4541 31.1596C15.3922 31.1278 15.3954 31.1085 15.4639 31.1019C15.8833 31.0624 16.1517 31.2454 16.269 31.651C16.2875 31.7125 16.281 31.7554 16.2495 31.7796C16.2448 31.7833 16.2394 31.7859 16.2335 31.7871C16.2277 31.7884 16.2217 31.7882 16.2159 31.7865C16.2102 31.7849 16.2049 31.782 16.2006 31.7779C16.1962 31.7738 16.1928 31.7687 16.1908 31.7631Z" fill="white"/>
<path d="M39.9489 31.5619C39.9347 31.6543 39.9 31.7296 39.8446 31.7878C39.7967 31.8373 39.7772 31.8274 39.7859 31.7581C39.8364 31.3443 40.0841 31.1514 40.5128 31.1085C40.5234 31.1062 40.5344 31.108 40.5437 31.1136C40.553 31.1192 40.5599 31.1283 40.5628 31.1388C40.5657 31.1494 40.5645 31.1607 40.5595 31.1704C40.5544 31.1801 40.5459 31.1874 40.5356 31.191L40.0483 31.4267C39.9918 31.4542 39.9586 31.4993 39.9489 31.5619Z" fill="white"/>
<path d="M15.2748 31.5735L15.4639 31.9428C15.4954 32.0033 15.5432 32.045 15.6073 32.0681L16.4141 32.3484C16.4277 32.3528 16.4391 32.3625 16.4461 32.3757C16.453 32.3888 16.455 32.4044 16.4516 32.4193C16.4472 32.4358 16.438 32.449 16.4239 32.4589C16.413 32.4665 16.3989 32.4687 16.3815 32.4655C15.9414 32.3852 15.6622 32.3 15.5438 32.2099C15.3156 32.0362 15.2156 31.8263 15.2439 31.5801C15.2482 31.5427 15.2585 31.5405 15.2748 31.5735Z" fill="white"/>
<path d="M40.5633 31.9741C40.6888 31.8686 40.6823 31.7763 40.7703 31.6411C40.8029 31.5905 40.8192 31.5955 40.8192 31.6559C40.8208 32.266 40.2113 32.3682 39.7012 32.4506C39.696 32.4511 39.6908 32.4505 39.6857 32.4488C39.6807 32.4471 39.676 32.4443 39.6718 32.4407L39.6083 32.3748C39.5594 32.3242 39.5702 32.2989 39.6408 32.2989C39.9983 32.3011 40.3058 32.1929 40.5633 31.9741Z" fill="white"/>
<path d="M18.6416 31.7919L18.637 31.7966C18.5917 31.8422 18.5916 31.9163 18.6367 31.9621L19.7664 33.109C19.8115 33.1548 19.8848 33.1549 19.9301 33.1093L19.9347 33.1046C19.98 33.059 19.9801 32.9849 19.935 32.9391L18.8052 31.7922C18.7601 31.7464 18.6868 31.7463 18.6416 31.7919Z" fill="white"/>
<path d="M37.4341 31.8054L37.4294 31.8007C37.3853 31.7565 37.3141 31.7569 37.2704 31.8016L36.1423 32.9547C36.0986 32.9994 36.099 33.0714 36.1431 33.1156L36.1478 33.1203C36.1919 33.1645 36.2631 33.1641 36.3068 33.1194L37.4349 31.9662C37.4786 31.9216 37.4782 31.8496 37.4341 31.8054Z" fill="white"/>
<path d="M14.8608 32.3649L14.5088 32.2082C14.4985 32.2047 14.49 32.1973 14.4849 32.1876C14.4799 32.1779 14.4787 32.1667 14.4816 32.1561C14.4845 32.1455 14.4913 32.1365 14.5006 32.1309C14.5099 32.1252 14.521 32.1234 14.5316 32.1258C14.9717 32.1687 15.2161 32.4138 15.265 32.8611C15.2664 32.8708 15.2644 32.8807 15.2593 32.889C15.2542 32.8972 15.2463 32.9034 15.2371 32.9064C15.2279 32.9094 15.218 32.9089 15.209 32.9052C15.2001 32.9014 15.1928 32.8946 15.1884 32.8859L14.9798 32.477C14.9545 32.4269 14.9124 32.3873 14.8608 32.3649Z" fill="white"/>
<path d="M41.6357 32.1884C41.2886 32.3072 41.1484 32.3731 40.9985 32.6897C40.9724 32.7457 40.9387 32.799 40.8974 32.8496C40.817 32.9452 40.7893 32.9315 40.8143 32.8084C40.9023 32.3643 41.1718 32.1346 41.6227 32.1192C41.6314 32.1188 41.6401 32.1217 41.6471 32.1273C41.654 32.1329 41.6588 32.1407 41.6604 32.1493C41.662 32.1579 41.6604 32.1667 41.6559 32.1739C41.6513 32.1812 41.6441 32.1863 41.6357 32.1884Z" fill="white"/>
<path d="M41.9014 32.5561C41.8069 33.3393 41.3489 33.3145 40.7605 33.5256C40.7062 33.5454 40.6758 33.5261 40.6692 33.4679L40.6627 33.4052C40.6573 33.3503 40.6817 33.3233 40.7361 33.3244C41.3065 33.3299 41.6787 33.0705 41.8525 32.5462C41.9047 32.3857 41.921 32.389 41.9014 32.5561Z" fill="white"/>
<path d="M14.5773 33.1398L15.4019 33.3772C15.4193 33.3835 15.4338 33.396 15.4427 33.4124C15.4515 33.4288 15.454 33.4479 15.4498 33.4661C15.4456 33.4843 15.4348 33.5002 15.4197 33.5109C15.4045 33.5216 15.386 33.5262 15.3677 33.5239C14.8576 33.4217 14.2692 33.3739 14.2285 32.7045C14.2282 32.6944 14.2314 32.6846 14.2374 32.6766C14.2434 32.6685 14.2519 32.6628 14.2616 32.6603C14.2712 32.6578 14.2814 32.6587 14.2905 32.6629C14.2996 32.667 14.307 32.6741 14.3116 32.6831L14.5104 33.0837C14.5171 33.0973 14.5265 33.1092 14.538 33.1189C14.5495 33.1285 14.5629 33.1357 14.5773 33.1398Z" fill="white"/>
<path d="M42.6609 33.1793C42.2958 33.2552 42.0405 33.4602 41.8949 33.7943C41.8893 33.8096 41.8779 33.822 41.8632 33.8288C41.8485 33.8356 41.8318 33.8363 41.8166 33.8306C41.8015 33.8249 41.7892 33.8134 41.7825 33.7985C41.7758 33.7837 41.7752 33.7668 41.7808 33.7515C41.9112 33.3283 42.2018 33.1123 42.6527 33.1035C42.6627 33.1024 42.6727 33.1053 42.6804 33.1117C42.6882 33.118 42.6932 33.1272 42.6943 33.1373C42.6954 33.1474 42.6925 33.1574 42.6862 33.1653C42.6799 33.1732 42.6708 33.1782 42.6609 33.1793Z" fill="white"/>
<path d="M13.6043 33.1777C13.676 33.1107 13.7835 33.1145 13.927 33.1893C14.1638 33.3124 14.2817 33.5108 14.2806 33.7845C14.2813 33.7992 14.2765 33.8136 14.2671 33.8248C14.2578 33.8359 14.2445 33.8431 14.23 33.845C14.2154 33.8468 14.2006 33.8432 14.1883 33.8347C14.176 33.8263 14.1671 33.8137 14.1633 33.7993C14.0883 33.5179 13.9096 33.342 13.6271 33.2717C13.5619 33.2552 13.5543 33.2239 13.6043 33.1777Z" fill="white"/>
<path d="M42.8043 33.7745C42.5392 34.2285 42.1328 34.445 41.5852 34.4241C41.5638 34.4249 41.5462 34.4176 41.5363 34.4038C41.5264 34.39 41.5249 34.3708 41.5323 34.3504C41.5396 34.3301 41.5552 34.3103 41.5755 34.2954C41.5958 34.2804 41.6192 34.2716 41.6406 34.2708C41.9677 34.2356 42.2697 34.129 42.5468 33.9509C42.5946 33.9202 42.6234 33.8768 42.6332 33.8207C42.6517 33.7229 42.6913 33.6751 42.7522 33.6773C42.8239 33.6806 42.8413 33.713 42.8043 33.7745Z" fill="white"/>
<path d="M13.3924 33.7927C13.6825 34.0631 14.028 34.2263 14.429 34.2824C14.439 34.2839 14.4486 34.2876 14.4572 34.2931C14.4658 34.2986 14.4731 34.3058 14.4788 34.3143C14.4845 34.3228 14.4883 34.3325 14.4901 34.3426C14.4919 34.3527 14.4916 34.3631 14.4893 34.3731C14.4784 34.4181 14.4637 34.4396 14.4452 34.4374C14.1682 34.3961 13.2815 34.2379 13.3435 33.8108C13.3489 33.7735 13.3652 33.7674 13.3924 33.7927Z" fill="white"/>
<path d="M12.5856 34.1455C12.478 34.1158 12.4796 34.0927 12.5905 34.0763C12.8675 34.0334 13.3744 34.2988 13.3027 34.6583C13.2875 34.7352 13.2625 34.7385 13.2277 34.6682C13.0941 34.4 12.88 34.2257 12.5856 34.1455Z" fill="white"/>
<path d="M42.7 34.744C42.7114 34.3203 43.1792 34.0581 43.5899 34.0334C43.6033 34.0319 43.6168 34.0358 43.6273 34.0443C43.6378 34.0528 43.6446 34.0652 43.6461 34.0787C43.6476 34.0923 43.6438 34.1059 43.6354 34.1166C43.627 34.1272 43.6147 34.1341 43.6013 34.1356C43.221 34.1994 42.9548 34.4093 42.8027 34.7654C42.7976 34.7766 42.789 34.7858 42.7781 34.7913C42.7672 34.7969 42.7548 34.7986 42.7429 34.7961C42.731 34.7936 42.7203 34.7871 42.7125 34.7776C42.7047 34.7682 42.7003 34.7563 42.7 34.744Z" fill="white"/>
<path d="M43.8621 34.444C43.5654 35.2321 43.4351 35.27 42.6397 35.4332C42.5984 35.4409 42.5707 35.425 42.5566 35.3854L42.5435 35.3458C42.5359 35.326 42.5425 35.3134 42.5631 35.3079L43.4155 35.0424C43.4409 35.0347 43.4643 35.0214 43.4838 35.0034C43.5033 34.9854 43.5184 34.9632 43.528 34.9386C43.6029 34.7539 43.6985 34.5808 43.8148 34.4192C43.8941 34.3104 43.9099 34.3186 43.8621 34.444Z" fill="white"/>
<path d="M13.319 35.4282C12.8708 35.2518 12.2547 35.293 12.3232 34.5907C12.3319 34.4939 12.3552 34.4906 12.3933 34.5808L12.5448 34.9468C12.5546 34.9701 12.5691 34.9909 12.5874 35.0077C12.6058 35.0245 12.6274 35.0369 12.6508 35.0441L13.4918 35.3145C13.5765 35.3419 13.5798 35.3771 13.5015 35.42C13.445 35.4519 13.3842 35.4546 13.319 35.4282Z" fill="white"/>
<path d="M44.3755 35.0408C44.3559 35.11 44.2984 35.1535 44.2027 35.1711C44.1877 35.1743 44.1738 35.1811 44.162 35.1908C43.9718 35.3414 43.8214 35.52 43.7105 35.7267C43.7047 35.7358 43.6959 35.7426 43.6856 35.746C43.6754 35.7494 43.6643 35.7492 43.6542 35.7453C43.6442 35.7415 43.6357 35.7343 43.6302 35.7249C43.6247 35.7155 43.6226 35.7045 43.6241 35.6937C43.7111 35.3079 43.9463 35.0738 44.3299 34.9913C44.3722 34.9825 44.3875 34.999 44.3755 35.0408Z" fill="white"/>
<path d="M11.6989 35.1397C11.6653 35.1485 11.6468 35.1271 11.6435 35.0754C11.6431 35.0675 11.6442 35.0596 11.6469 35.0521C11.6495 35.0446 11.6536 35.0377 11.6589 35.0319C11.6643 35.0261 11.6707 35.0213 11.6778 35.0181C11.685 35.0148 11.6927 35.013 11.7006 35.0128C12.1602 34.9963 12.4057 35.2227 12.4373 35.6921C12.4377 35.705 12.4336 35.7177 12.4258 35.728C12.4179 35.7383 12.4068 35.7455 12.3943 35.7484C12.3818 35.7514 12.3687 35.7498 12.3572 35.744C12.3457 35.7383 12.3366 35.7286 12.3313 35.7168C12.2237 35.4354 12.0265 35.2436 11.7397 35.1414C11.7266 35.137 11.7131 35.1364 11.6989 35.1397Z" fill="white"/>
<path d="M11.8147 36.2295C11.555 36.1559 11.3996 35.9416 11.3485 35.5865C11.3456 35.569 11.3488 35.5511 11.3576 35.5358C11.3665 35.5204 11.3803 35.5087 11.3968 35.5026C11.4132 35.4966 11.4313 35.4965 11.4478 35.5025C11.4643 35.5085 11.4782 35.5201 11.4871 35.5354L11.6908 35.8569C11.7277 35.9152 11.7783 35.9553 11.8424 35.9773L12.5953 36.2312C12.6211 36.2373 12.6433 36.2535 12.6572 36.2762C12.6711 36.299 12.6756 36.3264 12.6695 36.3524C12.6635 36.3784 12.6474 36.4009 12.625 36.415C12.6025 36.4291 12.5754 36.4335 12.5497 36.4274C12.2971 36.3895 12.0608 36.2988 11.8147 36.2295Z" fill="white"/>
<path d="M44.2549 36.1899C43.9827 36.2988 43.7024 36.401 43.471 36.3647C43.4595 36.3626 43.449 36.3567 43.4413 36.3479C43.4335 36.3391 43.4289 36.328 43.4281 36.3162C43.4274 36.3044 43.4306 36.2927 43.4371 36.283C43.4437 36.2733 43.4533 36.2661 43.4644 36.2625L44.3168 36.0119C44.3679 35.9965 44.4059 35.9652 44.4309 35.9179L44.677 35.4513C44.6779 35.4484 44.6793 35.4457 44.6812 35.4433C44.6831 35.4409 44.6854 35.439 44.6881 35.4375C44.6907 35.436 44.6936 35.4351 44.6966 35.4348C44.6996 35.4345 44.7027 35.4348 44.7056 35.4356C44.7085 35.4365 44.7111 35.4379 44.7135 35.4399C44.7158 35.4418 44.7178 35.4442 44.7192 35.4468C44.7207 35.4495 44.7215 35.4524 44.7219 35.4555C44.7222 35.4585 44.7219 35.4616 44.721 35.4645C44.6885 35.8371 44.5331 36.0789 44.2549 36.1899Z" fill="white"/>
<path d="M11.3583 36.5164C11.392 36.6109 11.4121 36.6928 11.4186 36.7621C11.4198 36.7798 11.4151 36.7974 11.4052 36.812C11.3953 36.8267 11.3808 36.8375 11.3641 36.8429C11.3473 36.8482 11.3293 36.8477 11.3129 36.8414C11.2965 36.8351 11.2826 36.8234 11.2736 36.8082C11.116 36.5356 10.8906 36.3433 10.5972 36.2312C10.5861 36.2269 10.5766 36.219 10.5702 36.2088C10.5638 36.1986 10.5608 36.1866 10.5617 36.1745C10.5627 36.1625 10.5674 36.151 10.5753 36.1419C10.5831 36.1328 10.5937 36.1265 10.6054 36.124C10.9835 36.0449 11.2345 36.1757 11.3583 36.5164Z" fill="white"/>
<path d="M45.5197 36.0745C45.6348 36.0657 45.6414 36.0888 45.5392 36.1438L45.1057 36.3763C45.0546 36.4048 45.0128 36.4439 44.9802 36.4933L44.7797 36.7983C44.7734 36.8074 44.7642 36.8139 44.7537 36.8168C44.7432 36.8198 44.732 36.8189 44.722 36.8145C44.712 36.81 44.7039 36.8022 44.6989 36.7923C44.694 36.7825 44.6926 36.7712 44.695 36.7604C44.7971 36.3339 45.072 36.1053 45.5197 36.0745Z" fill="white"/>
<path d="M44.5548 37.2451C44.8808 37.1627 45.0959 37.1644 45.4512 36.9418C45.4652 36.9331 45.4768 36.9218 45.4854 36.9088L45.7136 36.5263C45.7193 36.5178 45.7279 36.5115 45.7378 36.5086C45.7477 36.5058 45.7583 36.5066 45.7675 36.5108C45.7767 36.5151 45.7839 36.5225 45.7878 36.5317C45.7916 36.5409 45.7919 36.5513 45.7886 36.5609C45.6028 37.1204 45.1959 37.3891 44.5678 37.3672C44.5537 37.3658 44.5404 37.3595 44.5302 37.3494C44.5201 37.3392 44.5137 37.3259 44.5122 37.3115C44.5107 37.2972 44.5141 37.2828 44.5218 37.2707C44.5296 37.2586 44.5412 37.2496 44.5548 37.2451Z" fill="white"/>
<path d="M11.3795 37.3969C10.8753 37.3782 10.52 37.1616 10.3136 36.7473C10.307 36.736 10.3018 36.7227 10.2983 36.7081C10.2948 36.6935 10.293 36.6778 10.2932 36.662C10.2933 36.6462 10.2952 36.6306 10.2989 36.616C10.3027 36.6014 10.308 36.5881 10.3148 36.577C10.3215 36.5658 10.3295 36.557 10.3382 36.551C10.347 36.545 10.3563 36.5419 10.3658 36.5419C10.3752 36.542 10.3845 36.5451 10.3932 36.5512C10.4018 36.5573 10.4097 36.5662 10.4162 36.5774L10.6428 36.9138C10.6732 36.9595 10.719 36.9924 10.7715 37.0061C11.0627 37.0808 11.2795 37.1435 11.4219 37.1941C11.8565 37.3457 11.8423 37.4133 11.3795 37.3969Z" fill="white"/>
<path d="M9.64211 37.0176C9.95015 36.8214 10.3951 37.3325 10.4098 37.6277C10.4114 37.6439 10.4071 37.6602 10.3978 37.6736C10.3884 37.6869 10.3746 37.6964 10.3589 37.7002C10.3432 37.704 10.3266 37.702 10.3123 37.6944C10.298 37.6868 10.2869 37.6742 10.281 37.659C10.1561 37.382 9.94907 37.2056 9.66004 37.1297C9.56877 37.1056 9.56279 37.0682 9.64211 37.0176Z" fill="white"/>
<path d="M45.6679 37.6887C45.712 37.3012 46.0787 36.9418 46.491 37.0077C46.5015 37.0093 46.5112 37.0146 46.5183 37.0226C46.5253 37.0307 46.5294 37.041 46.5298 37.0517C46.5302 37.0625 46.5269 37.073 46.5204 37.0816C46.5139 37.0901 46.5047 37.0961 46.4943 37.0984C46.1411 37.1732 45.8956 37.3776 45.7576 37.7118C45.7528 37.7216 45.7448 37.7295 45.735 37.7341C45.7251 37.7387 45.714 37.7397 45.7035 37.737C45.693 37.7343 45.6837 37.728 45.6773 37.7192C45.6708 37.7104 45.6675 37.6996 45.6679 37.6887Z" fill="white"/>
<path d="M46.6915 37.448C46.6214 38.1668 46.0721 38.2311 45.5049 38.3729C45.4691 38.3817 45.4468 38.3674 45.4381 38.33C45.4349 38.3158 45.4316 38.3015 45.4283 38.2872C45.4251 38.274 45.43 38.2646 45.443 38.2591C46.0118 38.0217 46.4812 38.1223 46.6263 37.354C46.6272 37.3481 46.6299 37.3427 46.634 37.3385C46.6382 37.3343 46.6436 37.3315 46.6494 37.3306C46.6552 37.3297 46.6611 37.3307 46.6663 37.3334C46.6716 37.3361 46.6758 37.3404 46.6784 37.3457C46.6904 37.3721 46.6947 37.4062 46.6915 37.448Z" fill="white"/>
<path d="M10.0854 38.2575C9.53616 38.185 9.51335 37.9195 9.37644 37.4628C9.36666 37.4298 9.37427 37.4035 9.39926 37.3837C9.40643 37.3778 9.41497 37.3739 9.42405 37.3724C9.43314 37.3709 9.44246 37.3717 9.45113 37.3748C9.4598 37.378 9.46752 37.3833 9.47357 37.3904C9.47961 37.3974 9.48377 37.4059 9.48564 37.415C9.64047 38.2361 10.2044 37.8667 10.651 38.2608C10.6632 38.2717 10.6716 38.2862 10.6751 38.3022C10.6786 38.3183 10.677 38.335 10.6705 38.3501C10.6639 38.3651 10.6528 38.3777 10.6388 38.3859C10.6247 38.3942 10.6085 38.3977 10.5923 38.396C10.4641 38.3817 10.3429 38.3493 10.2288 38.2987C10.1832 38.2778 10.1354 38.2641 10.0854 38.2575Z" fill="white"/>
<path d="M47.4901 38.0663C46.9979 38.2723 46.9783 38.3515 46.667 38.7604C46.6171 38.8274 46.5991 38.8197 46.6133 38.7373C46.6958 38.2438 46.9843 37.9992 47.4787 38.0036C47.4858 38.0042 47.4926 38.0071 47.4979 38.012C47.5033 38.0168 47.5069 38.0234 47.5082 38.0305C47.5095 38.0376 47.5084 38.045 47.5051 38.0515C47.5019 38.0579 47.4966 38.0631 47.4901 38.0663Z" fill="white"/>
<path d="M8.80438 38.0662C9.18087 37.9987 9.46773 38.3136 9.43513 38.668C9.4343 38.6834 9.42816 38.698 9.41775 38.7091C9.40735 38.7202 9.39333 38.7273 9.37811 38.729C9.36288 38.7308 9.3474 38.7271 9.33431 38.7187C9.32122 38.7103 9.31134 38.6976 9.30637 38.6829C9.21836 38.4257 9.04831 38.2548 8.79623 38.1701C8.66585 38.1262 8.66856 38.0915 8.80438 38.0662Z" fill="white"/>
<path d="M8.43925 38.5015C8.60658 38.9379 8.92983 39.1654 9.409 39.1841C9.45231 39.1852 9.49368 39.2009 9.52635 39.2286C9.56764 39.2627 9.59318 39.2984 9.60295 39.3358C9.61925 39.3973 9.59589 39.4221 9.53287 39.41C9.00318 39.3127 8.40829 39.1973 8.40992 38.5065C8.40992 38.4526 8.41969 38.4509 8.43925 38.5015Z" fill="white"/>
<path d="M47.4771 38.8807L47.6221 38.5345C47.6623 38.4378 47.6819 38.4421 47.6808 38.5477C47.6759 39.2896 47.0533 39.1808 46.5204 39.4182C46.491 39.4325 46.466 39.4221 46.4454 39.3869C46.44 39.3773 46.4368 39.3667 46.436 39.3557C46.4352 39.3448 46.4368 39.3338 46.4407 39.3235C46.4446 39.3133 46.4507 39.304 46.4585 39.2964C46.4664 39.2889 46.4758 39.2832 46.4861 39.2797L47.3434 39.0044C47.3731 38.9945 47.4004 38.9784 47.4234 38.9571C47.4465 38.9358 47.4648 38.9097 47.4771 38.8807Z" fill="white"/>
<path d="M7.69769 39.0538C7.68904 39.0536 7.68083 39.0499 7.67487 39.0436C7.66891 39.0373 7.66569 39.0288 7.6659 39.02C7.66612 39.0113 7.66976 39.003 7.67603 38.997C7.68229 38.9909 7.69067 38.9877 7.69932 38.9879C8.16436 38.9483 8.44687 39.1539 8.54683 39.6045C8.54908 39.6116 8.54993 39.619 8.54935 39.6263C8.54876 39.6337 8.54675 39.6409 8.54342 39.6475C8.54009 39.6541 8.53551 39.6599 8.52994 39.6647C8.52437 39.6695 8.51793 39.6731 8.51097 39.6754C8.50402 39.6777 8.49669 39.6785 8.4894 39.678C8.48211 39.6774 8.47501 39.6753 8.46851 39.672C8.462 39.6686 8.45621 39.664 8.45147 39.6583C8.44673 39.6527 8.44314 39.6462 8.44089 39.6391C8.29964 39.3138 8.0519 39.1187 7.69769 39.0538Z" fill="white"/>
<path d="M48.4322 39.0324C47.8943 39.1791 47.9367 39.316 47.5879 39.6903C47.5818 39.6974 47.5735 39.7022 47.5644 39.7037C47.5553 39.7052 47.5458 39.7034 47.5377 39.6986C47.5295 39.6938 47.5231 39.6863 47.5195 39.6773C47.5159 39.6683 47.5153 39.6583 47.5178 39.649C47.6406 39.1819 47.9427 38.9549 48.424 38.9681C48.4316 38.9685 48.4388 38.9717 48.4444 38.9769C48.4499 38.9821 48.4535 38.9892 48.4545 38.9968C48.4555 39.0045 48.4538 39.0122 48.4497 39.0187C48.4456 39.0252 48.4394 39.03 48.4322 39.0324Z" fill="white"/>
<path d="M47.4119 40.2162C47.8976 40.0332 48.4892 40.0513 48.574 39.377C48.5737 39.3693 48.5765 39.362 48.5817 39.3568C48.5869 39.3515 48.5941 39.3487 48.6017 39.3489C48.6092 39.3491 48.6166 39.3524 48.6221 39.3579C48.6276 39.3635 48.6308 39.371 48.631 39.3786C48.6995 40.114 48.0247 40.1568 47.5358 40.3267C47.4706 40.3487 47.4222 40.3437 47.3907 40.3118C47.3494 40.269 47.3565 40.2371 47.4119 40.2162Z" fill="white"/>
<path d="M7.48745 39.5039C7.54395 39.6073 7.60317 39.71 7.6651 39.8123C7.69159 39.854 7.7311 39.8858 7.77756 39.9029L8.63648 40.2096C8.69081 40.2294 8.70331 40.2646 8.67397 40.3151C8.65441 40.3503 8.62888 40.364 8.59737 40.3563C8.1296 40.2475 7.40922 40.086 7.47441 39.4248C7.47441 39.4244 7.47458 39.4239 7.47489 39.4236C7.47519 39.4233 7.47561 39.4232 7.47604 39.4232C7.47647 39.4232 7.47689 39.4233 7.47719 39.4236C7.4775 39.4239 7.47767 39.4244 7.47767 39.4248C7.47767 39.4413 7.47767 39.4561 7.47767 39.4693C7.47767 39.4814 7.48093 39.493 7.48745 39.5039Z" fill="white"/>
<path d="M6.67741 40.1189C6.66897 40.1164 6.66169 40.1109 6.65683 40.1035C6.65196 40.0961 6.64983 40.0872 6.6508 40.0784C6.65177 40.0695 6.65579 40.0613 6.66214 40.0552C6.66849 40.049 6.67678 40.0453 6.68555 40.0447C7.11692 40.0425 7.36357 40.2563 7.4255 40.6861C7.4279 40.6993 7.42527 40.7128 7.41811 40.7239C7.41096 40.735 7.39981 40.7428 7.38688 40.7459C7.37395 40.7491 7.36018 40.7472 7.34832 40.7407C7.33645 40.7342 7.32735 40.7235 7.32282 40.7108C7.21634 40.3954 7.0012 40.1981 6.67741 40.1189Z" fill="white"/>
<path d="M48.6261 40.6581C48.8087 40.2404 48.9923 40.0486 49.177 40.0827C49.3182 40.1079 49.322 40.147 49.1884 40.1997C49.07 40.247 48.9678 40.3272 48.882 40.4404C48.8787 40.4448 48.8755 40.4498 48.8722 40.4553L48.7516 40.7158C48.744 40.7326 48.7302 40.7457 48.7131 40.7522C48.6959 40.7587 48.677 40.758 48.6603 40.7504C48.6437 40.7427 48.6307 40.7287 48.6243 40.7114C48.6179 40.6941 48.6185 40.6749 48.6261 40.6581Z" fill="white"/>
<path d="M7.55755 41.3951C7.1175 41.2401 6.41667 41.156 6.47045 40.5179C6.471 40.5111 6.47388 40.5047 6.47863 40.5C6.48337 40.4952 6.4897 40.4923 6.49654 40.4917C6.50339 40.4911 6.51036 40.4929 6.51628 40.4968C6.52221 40.5007 6.52674 40.5064 6.52913 40.513C6.697 41.09 7.13216 41.128 7.63578 41.2731C7.64209 41.275 7.64783 41.2785 7.65245 41.2832C7.65707 41.288 7.66043 41.2938 7.66221 41.3002C7.664 41.3066 7.66416 41.3134 7.66267 41.3199C7.66119 41.3264 7.65811 41.3324 7.65371 41.3374L7.62274 41.3769C7.60427 41.3978 7.58254 41.4039 7.55755 41.3951Z" fill="white"/>
<path d="M48.662 41.3473C48.6044 41.411 48.5343 41.4335 48.4517 41.4149C48.4366 41.4116 48.423 41.4033 48.4131 41.3914C48.4031 41.3795 48.3972 41.3646 48.3965 41.349C48.3958 41.3334 48.4001 41.3179 48.4089 41.3051C48.4177 41.2923 48.4305 41.2828 48.4452 41.278L49.2438 41.006C49.2964 40.9868 49.3404 40.9487 49.3677 40.8988L49.5714 40.513C49.6431 40.3778 49.667 40.386 49.6431 40.5377C49.5693 41.0093 49.2938 41.2549 48.8168 41.2747C48.7572 41.2778 48.7017 41.3039 48.662 41.3473Z" fill="white"/>
<path d="M5.83318 41.0043C6.12166 41.006 6.43785 41.2566 6.49979 41.5583C6.50631 41.5924 6.49653 41.5984 6.47045 41.5764L5.82177 41.0389C5.79352 41.0148 5.79733 41.0032 5.83318 41.0043Z" fill="white"/>
<path d="M50.4222 41.0488C50.081 41.1335 49.8262 41.3335 49.6578 41.649C49.5698 41.8138 49.5416 41.8039 49.5731 41.6193C49.6361 41.2489 49.8838 41.0263 50.3163 40.9515C50.4423 40.9307 50.4912 40.9521 50.463 41.0158C50.4543 41.0334 50.4407 41.0444 50.4222 41.0488Z" fill="white"/>
<path d="M50.3097 41.8221L50.5444 41.4017C50.5461 41.3979 50.5485 41.3945 50.5516 41.3916C50.5546 41.3888 50.5581 41.3866 50.562 41.3851C50.5658 41.3837 50.5699 41.383 50.5741 41.3831C50.5782 41.3833 50.5822 41.3843 50.586 41.386C50.5897 41.3877 50.5931 41.3902 50.5959 41.3932C50.5987 41.3963 50.6009 41.3999 50.6023 41.4038C50.6037 41.4077 50.6044 41.4118 50.6043 41.416C50.6041 41.4202 50.6032 41.4242 50.6014 41.428L50.4336 41.921C50.4239 41.9487 50.4084 41.9738 50.388 41.9944C50.3677 42.0149 50.3432 42.0304 50.3162 42.0397C50.1782 42.0881 49.9223 42.1749 49.5486 42.3002C49.4736 42.3244 49.4106 42.3167 49.3595 42.2771C49.3507 42.2706 49.344 42.2618 49.34 42.2515C49.3361 42.2413 49.335 42.2301 49.3371 42.2192C49.3391 42.2083 49.3441 42.198 49.3515 42.1896C49.3589 42.1812 49.3685 42.175 49.3791 42.1716L50.1728 41.9325C50.2336 41.915 50.2793 41.8781 50.3097 41.8221Z" fill="white"/>
<path d="M5.61639 41.588C5.82501 42.0579 6.33189 42.0348 6.73609 42.2013C6.74875 42.2076 6.75881 42.2182 6.76453 42.2313C6.77025 42.2444 6.77126 42.259 6.76738 42.2728C6.7635 42.2865 6.75498 42.2984 6.74331 42.3064C6.73163 42.3145 6.71754 42.3181 6.70349 42.3167C6.33189 42.2508 5.55772 42.1172 5.58705 41.5946C5.58923 41.5517 5.59901 41.5495 5.61639 41.588Z" fill="white"/>
</svg>
